<svg width="792" height="1252" viewBox="0 0 792 1252" fill="none" xmlns="http://www.w3.org/2000/svg">
<mask id="path-1-inside-1_1368_1066" fill="white">
<path d="M791.167 408.863C791.167 316.291 755.758 227.51 692.728 162.052C629.698 96.5935 544.211 59.8193 455.074 59.8193C365.936 59.8193 280.45 96.5935 217.42 162.052C154.39 227.51 118.98 316.291 118.98 408.863L455.074 408.863H791.167Z"/>
</mask>
<path d="M791.167 408.863C791.167 316.291 755.758 227.51 692.728 162.052C629.698 96.5935 544.211 59.8193 455.074 59.8193C365.936 59.8193 280.45 96.5935 217.42 162.052C154.39 227.51 118.98 316.291 118.98 408.863L455.074 408.863H791.167Z" fill="#FFBBD0" stroke="black" stroke-width="7.68537" mask="url(#path-1-inside-1_1368_1066)"/>
<path d="M426.31 322.554C421.583 344.008 396.084 377.69 396.084 377.69C396.084 377.69 423.218 373.718 432.229 381.188C443.818 390.798 452.05 399.844 452.05 399.844C452.05 399.844 443.416 366.93 442.429 336.399C441.714 314.246 467.207 280.916 467.207 280.916C467.207 280.916 437.968 277.666 434.513 274.302C430.925 270.809 424.705 262.746 424.705 262.746C424.705 262.746 432.007 296.692 426.31 322.554Z" fill="#0E0C0C" stroke="black" stroke-width="2.33334"/>
<path d="M432.438 272.339C432.438 272.339 430.705 271.041 429.779 269.93C428.768 268.717 428.107 268.004 427.589 266.372C426.739 263.693 427.014 261.546 428.113 259.015C429.534 255.741 431.772 255.238 434.558 253.967C439.648 251.643 448.529 253.967 448.529 253.967C448.529 253.967 453.29 254.764 456.116 256.177C457.75 256.994 458.644 257.555 460.139 258.718C463.849 261.603 468.011 268.727 468.011 268.727C468.011 268.727 469.443 271.256 468.967 273.54C468.493 275.813 467.734 277.216 466.1 278.353C464.469 279.486 461.502 279.948 461.502 279.948C461.502 279.948 456.74 280.625 453.674 280.759C451.436 280.857 450.166 281.059 447.939 280.759C446.047 280.504 443.16 279.556 443.16 279.556C443.16 279.556 440.224 278.16 438.381 277.149C436.019 275.855 432.438 272.339 432.438 272.339Z" fill="white" stroke="black" stroke-width="7.00001" stroke-linecap="round"/>
<path d="M394.452 410.08C394.452 410.08 391.551 407.906 390 406.045C388.307 404.014 387.199 402.82 386.332 400.086C384.909 395.6 385.37 392.005 387.21 387.766C389.588 382.284 393.338 381.442 398.003 379.313C406.527 375.421 421.399 379.313 421.399 379.313C421.399 379.313 429.372 380.648 434.105 383.014C436.841 384.382 438.338 385.321 440.842 387.268C447.054 392.101 454.025 404.031 454.025 404.031C454.025 404.031 456.423 408.266 455.625 412.09C454.831 415.897 453.56 418.247 450.823 420.15C448.093 422.048 443.124 422.821 443.124 422.821C443.124 422.821 435.149 423.956 430.015 424.18C426.267 424.343 424.141 424.683 420.411 424.18C417.242 423.752 412.408 422.165 412.408 422.165C412.408 422.165 407.492 419.826 404.405 418.135C400.449 415.967 394.452 410.08 394.452 410.08Z" fill="white" stroke="black" stroke-width="7.00001" stroke-linecap="round"/>
<path d="M332.387 580.986C328.65 552.914 344.679 500.872 344.679 500.872C344.679 500.872 313.566 517.651 299.358 512.577C281.082 506.05 267.122 498.723 267.122 498.723C267.122 498.723 292.096 534.78 306.756 571.325C317.394 597.841 301.216 649.454 301.216 649.454C301.216 649.454 338.063 640.496 343.732 643.046C349.619 645.694 360.708 652.718 360.708 652.718C360.708 652.718 336.892 614.823 332.387 580.986Z" fill="#0E0C0C" stroke="black" stroke-width="3.0077"/>
<path d="M347.114 644.506C347.114 644.506 349.785 645.314 351.397 646.251C353.156 647.275 354.272 647.846 355.619 649.595C357.83 652.465 358.443 655.187 358.229 658.737C357.952 663.329 355.462 664.925 352.649 667.694C347.509 672.753 335.727 673.856 335.727 673.856C335.727 673.856 329.609 674.99 325.563 674.525C323.224 674.256 321.894 673.971 319.57 673.222C313.804 671.363 305.62 664.571 305.62 664.571C305.62 664.571 302.77 662.139 302.34 659.163C301.912 656.2 302.212 654.166 303.69 652.069C305.165 649.977 308.555 648.109 308.555 648.109C308.555 648.109 314.025 645.188 317.679 643.674C320.347 642.568 321.795 641.763 324.625 641.145C327.03 640.619 330.944 640.494 330.944 640.494C330.944 640.494 335.116 640.891 337.794 641.301C341.227 641.827 347.114 644.506 347.114 644.506Z" stroke="black" stroke-width="9.0231" stroke-linecap="round"/>
<path d="M332.371 460.919C332.371 460.919 336.844 462.273 339.542 463.843C342.489 465.556 344.357 466.513 346.614 469.443C350.316 474.249 351.343 478.806 350.984 484.753C350.521 492.441 346.351 495.115 341.64 499.751C333.031 508.224 313.302 510.07 313.302 510.07C313.302 510.07 303.057 511.97 296.28 511.191C292.363 510.74 290.135 510.264 286.243 509.009C276.588 505.896 262.884 494.521 262.884 494.521C262.884 494.521 258.111 490.448 257.39 485.465C256.673 480.504 257.176 477.097 259.652 473.585C262.121 470.081 267.799 466.954 267.799 466.954C267.799 466.954 276.958 462.062 283.077 459.526C287.545 457.675 289.971 456.326 294.71 455.291C298.737 454.411 305.292 454.202 305.292 454.202C305.292 454.202 312.278 454.865 316.763 455.553C322.511 456.434 332.371 460.919 332.371 460.919Z" fill="white" stroke="black" stroke-width="9.0231" stroke-linecap="round"/>
<path d="M465.49 137.853C465.49 137.853 464.405 137.04 463.825 136.344C463.192 135.585 462.777 135.138 462.453 134.116C461.921 132.438 462.093 131.094 462.781 129.509C463.671 127.459 465.073 127.144 466.817 126.348C470.005 124.892 475.567 126.348 475.567 126.348C475.567 126.348 478.548 126.847 480.318 127.732C481.341 128.243 481.901 128.594 482.837 129.323C485.16 131.13 487.767 135.591 487.767 135.591C487.767 135.591 488.664 137.175 488.366 138.605C488.069 140.028 487.593 140.907 486.57 141.619C485.549 142.329 483.691 142.618 483.691 142.618C483.691 142.618 480.708 143.042 478.789 143.126C477.387 143.187 476.592 143.314 475.197 143.126C474.012 142.966 472.204 142.372 472.204 142.372C472.204 142.372 470.366 141.498 469.212 140.865C467.732 140.054 465.49 137.853 465.49 137.853Z" fill="white" stroke="black" stroke-width="7.00001" stroke-linecap="round"/>
<path d="M473.166 143.333C467.919 140.788 460.213 129.342 460.213 129.342C460.213 129.342 442.99 157.71 418.238 185.308C440.945 163.01 488.323 143.333 488.323 143.333C488.323 143.333 478.492 145.917 473.166 143.333Z" fill="black"/>
<path d="M460.213 129.342L459.215 128.737L460.162 127.178L461.18 128.69L460.213 129.342ZM473.166 143.333L472.657 144.383V144.383L473.166 143.333ZM488.323 143.333L488.027 142.205L488.771 144.411L488.323 143.333ZM418.238 185.308L419.056 186.14C418.606 186.581 417.888 186.586 417.432 186.151C416.977 185.716 416.949 184.998 417.37 184.529L418.238 185.308ZM460.213 129.342C461.18 128.69 461.18 128.69 461.18 128.69C461.18 128.69 461.18 128.69 461.18 128.691C461.18 128.691 461.181 128.691 461.181 128.692C461.182 128.693 461.183 128.695 461.185 128.697C461.188 128.702 461.193 128.71 461.2 128.72C461.214 128.741 461.235 128.772 461.264 128.813C461.32 128.895 461.403 129.017 461.512 129.173C461.729 129.486 462.047 129.937 462.444 130.487C463.24 131.587 464.354 133.079 465.627 134.648C466.903 136.219 468.328 137.851 469.745 139.24C471.179 140.646 472.536 141.731 473.675 142.284L473.166 143.333L472.657 144.383C471.172 143.663 469.598 142.363 468.112 140.907C466.609 139.434 465.123 137.728 463.816 136.119C462.507 134.507 461.367 132.979 460.553 131.854C460.146 131.291 459.82 130.828 459.596 130.505C459.484 130.343 459.397 130.216 459.337 130.129C459.308 130.086 459.285 130.053 459.269 130.03C459.262 130.018 459.256 130.01 459.251 130.004C459.249 130 459.248 129.998 459.247 129.996C459.246 129.996 459.246 129.995 459.245 129.994C459.245 129.994 459.245 129.994 459.245 129.994C459.245 129.994 459.245 129.994 460.213 129.342ZM473.166 143.333L473.675 142.284C476.021 143.422 479.521 143.462 482.622 143.142C484.138 142.985 485.495 142.749 486.474 142.553C486.963 142.455 487.355 142.367 487.624 142.304C487.758 142.272 487.861 142.247 487.929 142.23C487.963 142.221 487.989 142.215 488.005 142.211C488.013 142.208 488.019 142.207 488.023 142.206C488.025 142.206 488.026 142.205 488.027 142.205C488.027 142.205 488.027 142.205 488.027 142.205C488.027 142.205 488.027 142.205 488.027 142.205C488.027 142.205 488.027 142.205 488.323 143.333C488.62 144.462 488.62 144.462 488.619 144.462C488.619 144.462 488.619 144.462 488.618 144.462C488.618 144.462 488.617 144.462 488.616 144.463C488.615 144.463 488.612 144.464 488.609 144.465C488.603 144.466 488.595 144.468 488.585 144.471C488.563 144.476 488.533 144.484 488.494 144.494C488.416 144.513 488.302 144.541 488.157 144.575C487.867 144.643 487.45 144.737 486.934 144.841C485.903 145.048 484.47 145.296 482.862 145.463C479.715 145.788 475.637 145.828 472.657 144.383L473.166 143.333ZM488.323 143.333C488.771 144.411 488.771 144.411 488.77 144.411C488.77 144.411 488.77 144.411 488.769 144.412C488.768 144.412 488.766 144.413 488.763 144.414C488.758 144.416 488.749 144.42 488.738 144.424C488.716 144.434 488.683 144.448 488.638 144.466C488.549 144.504 488.416 144.56 488.241 144.634C487.892 144.782 487.375 145.003 486.708 145.293C485.374 145.872 483.442 146.724 481.051 147.817C476.269 150.004 469.657 153.151 462.338 156.992C447.672 164.69 430.28 175.118 419.056 186.14L418.238 185.308L417.421 184.475C428.904 173.199 446.555 162.641 461.254 154.926C468.618 151.061 475.27 147.895 480.081 145.695C482.486 144.595 484.433 143.736 485.779 143.152C486.452 142.86 486.975 142.637 487.33 142.486C487.508 142.41 487.644 142.353 487.735 142.315C487.781 142.295 487.816 142.281 487.839 142.271C487.851 142.266 487.86 142.262 487.866 142.26C487.869 142.259 487.872 142.258 487.873 142.257C487.874 142.257 487.875 142.256 487.875 142.256C487.876 142.256 487.876 142.256 488.323 143.333ZM418.238 185.308L417.37 184.529C429.706 170.774 440.17 156.822 447.553 146.305C451.243 141.048 454.161 136.652 456.156 133.572C457.153 132.031 457.919 130.821 458.435 129.996C458.693 129.583 458.889 129.268 459.02 129.055C459.085 128.949 459.134 128.869 459.167 128.815C459.183 128.789 459.196 128.769 459.204 128.756C459.208 128.749 459.211 128.744 459.213 128.741C459.214 128.739 459.214 128.738 459.215 128.737C459.215 128.737 459.215 128.737 459.215 128.737C459.215 128.737 459.215 128.737 460.213 129.342C461.21 129.947 461.21 129.948 461.209 129.948C461.209 129.948 461.209 129.949 461.209 129.949C461.208 129.95 461.207 129.952 461.206 129.953C461.204 129.957 461.201 129.963 461.196 129.97C461.188 129.984 461.175 130.005 461.158 130.033C461.124 130.089 461.073 130.171 461.006 130.279C460.873 130.496 460.674 130.817 460.413 131.234C459.891 132.068 459.118 133.289 458.114 134.84C456.106 137.941 453.172 142.362 449.462 147.646C442.046 158.212 431.523 172.243 419.107 186.087L418.238 185.308Z" fill="black"/>
<path d="M549.94 11.5457C549.94 11.5457 550.347 12.3427 550.49 12.9313C550.647 13.5739 550.763 13.9629 550.664 14.6864C550.5 15.8735 550.017 16.6641 549.163 17.4666C548.058 18.5043 547.144 18.3243 545.892 18.3523C543.605 18.4034 540.748 16.0064 540.748 16.0064C540.748 16.0064 539.137 14.8962 538.348 13.8706C537.891 13.2779 537.662 12.9092 537.318 12.2047C536.465 10.4569 536.199 6.9807 536.199 6.9807C536.199 6.9807 536.261 5.63392 536.703 4.9439C537.201 4.16571 537.811 3.71776 538.614 3.5491C539.416 3.38086 540.591 3.69918 540.591 3.69918C540.591 3.69918 542.465 4.23476 543.617 4.69734C544.459 5.03508 544.962 5.16926 545.729 5.66029C546.38 6.07757 547.274 6.93183 547.274 6.93183C547.274 6.93183 548.107 7.9692 548.606 8.67245C549.246 9.57392 549.94 11.5457 549.94 11.5457Z" fill="white" stroke="black" stroke-width="7.00001" stroke-linecap="round"/>
<path d="M329.062 285.557C329.062 285.557 327.01 285.166 325.72 284.588C324.311 283.956 323.427 283.614 322.236 282.395C320.282 280.394 319.517 278.372 319.262 275.648C318.932 272.126 320.572 270.699 322.312 268.352C325.493 264.064 334.001 262.231 334.001 262.231C334.001 262.231 338.354 260.851 341.375 260.865C343.12 260.873 344.129 260.978 345.919 261.353C350.361 262.284 357.149 266.771 357.149 266.771C357.149 266.771 359.542 268.813 360.181 270.616C360.902 272.648 360.855 274.413 360.015 276.135C359.177 277.854 356.908 279.563 356.908 279.563C356.908 279.563 353.238 282.25 350.735 283.711C348.908 284.779 347.94 285.514 345.937 286.224C344.235 286.827 341.381 287.252 341.381 287.252C341.381 287.252 338.276 287.301 336.266 287.214C333.688 287.102 329.062 285.557 329.062 285.557Z" fill="white" stroke="black" stroke-width="7.00001" stroke-linecap="round"/>
<path d="M221.337 432.215C221.337 432.215 217.901 431.561 215.74 430.592C213.382 429.534 211.901 428.962 209.907 426.92C206.635 423.569 205.353 420.182 204.926 415.621C204.373 409.722 207.119 407.334 210.034 403.403C215.361 396.221 229.609 393.152 229.609 393.152C229.609 393.152 236.899 390.842 241.957 390.865C244.881 390.878 246.569 391.053 249.567 391.682C257.007 393.24 268.373 400.755 268.373 400.755C268.373 400.755 272.381 404.175 273.451 407.194C274.658 410.598 274.579 413.552 273.173 416.437C271.769 419.315 267.97 422.177 267.97 422.177C267.97 422.177 261.824 426.676 257.633 429.124C254.573 430.911 252.951 432.144 249.598 433.332C246.748 434.342 241.967 435.054 241.967 435.054C241.967 435.054 236.768 435.136 233.401 434.99C229.085 434.803 221.337 432.215 221.337 432.215Z" fill="white" stroke="black" stroke-width="7.00001" stroke-linecap="round"/>
<path d="M300.473 340.379C287.173 364.861 275.764 407.149 275.764 407.149C275.764 407.149 261.863 393.365 250.337 390.515C235.511 386.849 211.723 399.025 211.723 399.025C211.723 399.025 257.901 366.984 281.817 340.379C299.171 321.075 317.343 272.853 317.343 272.853C317.343 272.853 327.153 287.27 331.953 287.911C336.938 288.577 347.111 287.911 347.111 287.911C347.111 287.911 316.504 310.869 300.473 340.379Z" fill="#0E0C0C" stroke="black" stroke-width="2.33334"/>
<path d="M552.842 328.79C552.842 328.79 553.792 330.65 554.126 332.024C554.492 333.523 554.764 334.431 554.532 336.12C554.151 338.89 553.023 340.735 551.029 342.608C548.45 345.03 546.318 344.61 543.396 344.675C538.058 344.794 531.391 339.2 531.391 339.2C531.391 339.2 527.631 336.609 525.788 334.216C524.723 332.832 524.188 331.972 523.385 330.328C521.395 326.249 520.774 318.136 520.774 318.136C520.774 318.136 520.918 314.993 521.95 313.382C523.113 311.566 524.535 310.521 526.411 310.127C528.282 309.735 531.023 310.477 531.023 310.477C531.023 310.477 535.397 311.727 538.086 312.807C540.05 313.595 541.226 313.908 543.014 315.054C544.535 316.028 546.622 318.022 546.622 318.022C546.622 318.022 548.565 320.443 549.73 322.084C551.223 324.188 552.842 328.79 552.842 328.79Z" fill="white" stroke="black" stroke-width="7.00001" stroke-linecap="round"/>
<path d="M596.09 504.615C596.09 504.615 597.681 507.73 598.242 510.03C598.854 512.542 599.31 514.062 598.921 516.889C598.283 521.529 596.395 524.619 593.055 527.755C588.736 531.811 585.165 531.108 580.273 531.217C571.333 531.417 560.168 522.048 560.168 522.048C560.168 522.048 553.871 517.709 550.786 513.701C549.002 511.385 548.105 509.944 546.762 507.19C543.428 500.359 542.389 486.773 542.389 486.773C542.389 486.773 542.631 481.51 544.358 478.813C546.305 475.772 548.687 474.021 551.828 473.362C554.962 472.704 559.552 473.948 559.552 473.948C559.552 473.948 566.876 476.041 571.381 477.849C574.67 479.169 576.638 479.694 579.633 481.613C582.179 483.244 585.674 486.582 585.674 486.582C585.674 486.582 588.929 490.637 590.88 493.385C593.38 496.908 596.09 504.615 596.09 504.615Z" fill="white" stroke="black" stroke-width="7.00001" stroke-linecap="round"/>
<path d="M540.901 173.206C540.901 173.206 541.496 174.371 541.706 175.231C541.935 176.17 542.105 176.739 541.96 177.796C541.721 179.531 541.015 180.686 539.766 181.859C538.151 183.376 536.816 183.113 534.986 183.154C531.643 183.229 527.468 179.725 527.468 179.725C527.468 179.725 525.113 178.103 523.959 176.604C523.293 175.737 522.957 175.199 522.455 174.169C521.208 171.615 520.819 166.534 520.819 166.534C520.819 166.534 520.91 164.566 521.556 163.557C522.284 162.42 523.175 161.765 524.349 161.519C525.521 161.273 527.238 161.738 527.238 161.738C527.238 161.738 529.977 162.521 531.661 163.197C532.891 163.69 533.627 163.887 534.747 164.604C535.699 165.214 537.006 166.463 537.006 166.463C537.006 166.463 538.223 167.979 538.953 169.007C539.888 170.324 540.901 173.206 540.901 173.206Z" fill="white" stroke="black" stroke-width="7.00001" stroke-linecap="round"/>
<path d="M531.331 184.141L519.672 172.482C519.672 172.482 531.147 234.008 526.668 273.92C524.964 289.097 519.672 312.396 519.672 312.396L535.995 310.064L551.153 320.558C551.153 320.558 535.556 272.691 535.995 240.107C536.296 217.784 542.991 181.809 542.991 181.809L531.331 184.141Z" fill="black" stroke="black" stroke-width="2.33334"/>
<path d="M530.168 341.546L520.938 330.204C520.938 330.204 542.937 370.859 546.491 406.839C549.406 436.348 541.828 482.626 541.828 482.626L554.653 470.966L577.972 477.962L593.129 495.451C593.129 495.451 559.512 435.365 554.653 392.848C552.378 372.942 556.304 337.851 556.304 337.851L546.491 347.375L530.168 341.546Z" fill="#0E0C0C" stroke="black" stroke-width="2.33334"/>
<path d="M523.444 703.611C523.444 703.611 523.387 700.833 522.915 699.012C522.4 697.023 522.148 695.787 520.813 693.954C518.622 690.946 516.139 689.492 512.622 688.552C508.074 687.336 505.838 689.17 502.372 690.932C496.039 694.152 491.743 704.907 491.743 704.907C491.743 704.907 488.965 710.311 488.312 714.277C487.934 716.569 487.847 717.915 487.942 720.348C488.175 726.383 492.554 736.285 492.554 736.285C492.554 736.285 494.701 739.879 496.924 741.118C499.43 742.515 501.756 742.846 504.203 742.127C506.644 741.409 509.39 738.813 509.39 738.813C509.39 738.813 513.731 734.595 516.205 731.636C518.011 729.476 519.192 728.369 520.568 725.9C521.737 723.801 522.93 720.15 522.93 720.15C522.93 720.15 523.684 716.089 524.017 713.431C524.443 710.025 523.444 703.611 523.444 703.611Z" fill="white" stroke="black" stroke-width="9.31465" stroke-linecap="round"/>
<path d="M463.492 470.254C463.492 470.254 463.397 465.601 462.606 462.551C461.743 459.221 461.321 457.151 459.086 454.081C455.417 449.044 451.259 446.609 445.369 445.034C437.753 442.998 434.009 446.07 428.205 449.021C417.598 454.413 410.404 472.424 410.404 472.424C410.404 472.424 405.753 481.474 404.658 488.115C404.026 491.953 403.88 494.208 404.038 498.281C404.43 508.388 411.762 524.97 411.762 524.97C411.762 524.97 415.358 530.989 419.08 533.064C423.278 535.404 427.172 535.958 431.27 534.753C435.357 533.552 439.957 529.204 439.957 529.204C439.957 529.204 447.226 522.14 451.369 517.186C454.394 513.568 456.371 511.715 458.676 507.579C460.634 504.065 462.63 497.951 462.63 497.951C462.63 497.951 463.894 491.149 464.451 486.699C465.165 480.995 463.492 470.254 463.492 470.254Z" fill="white" stroke="black" stroke-width="9.31465" stroke-linecap="round"/>
<path d="M607.368 893.536C607.368 893.536 607.333 891.796 607.037 890.656C606.714 889.411 606.557 888.637 605.72 887.489C604.349 885.605 602.794 884.694 600.591 884.106C597.743 883.344 596.343 884.493 594.172 885.596C590.206 887.613 587.516 894.348 587.516 894.348C587.516 894.348 585.776 897.732 585.367 900.216C585.131 901.651 585.076 902.494 585.135 904.017C585.282 907.797 588.024 913.998 588.024 913.998C588.024 913.998 589.369 916.249 590.76 917.024C592.33 917.899 593.786 918.106 595.319 917.656C596.847 917.207 598.567 915.581 598.567 915.581C598.567 915.581 601.285 912.939 602.835 911.087C603.966 909.734 604.705 909.041 605.567 907.494C606.299 906.18 607.046 903.894 607.046 903.894C607.046 903.894 607.519 901.35 607.727 899.686C607.994 897.553 607.368 893.536 607.368 893.536Z" fill="white" stroke="black" stroke-width="9.31465" stroke-linecap="round"/>
<path d="M589.268 886.737L582.936 907.745C582.936 907.745 557.666 828.389 527.294 784.416C515.744 767.695 494.875 743.709 494.875 743.709L515.481 736.169L526.67 712.542C526.67 712.542 538.488 780.261 559.511 818.187C573.914 844.17 604.405 882.132 604.405 882.132L589.268 886.737Z" fill="#0E0C0C" stroke="black" stroke-width="3.10488"/>
<path d="M488.832 702.93L485.25 718.755C485.25 718.755 485.354 660.527 466.875 616.107C451.72 579.676 412.447 530.932 412.447 530.932L436.082 535.787L459.019 512.908L465.782 482.864C465.782 482.864 464.187 574.468 485.25 627.373C495.111 652.142 521.891 690.557 521.891 690.557L504.301 685.822L488.832 702.93Z" fill="#0E0C0C" stroke="black" stroke-width="3.10488"/>
<path d="M221.674 965.27C221.674 965.27 221.747 961.717 222.351 959.389C223.01 956.846 223.332 955.266 225.039 952.922C227.84 949.075 231.015 947.216 235.512 946.014C241.327 944.459 244.186 946.805 248.618 949.058C256.717 953.175 262.209 966.927 262.209 966.927C262.209 966.927 265.761 973.837 266.597 978.908C267.08 981.839 267.19 983.56 267.07 986.67C266.771 994.387 261.173 1007.05 261.173 1007.05C261.173 1007.05 258.427 1011.64 255.585 1013.23C252.38 1015.02 249.407 1015.44 246.278 1014.52C243.156 1013.6 239.645 1010.28 239.645 1010.28C239.645 1010.28 234.094 1004.89 230.931 1001.1C228.621 998.343 227.112 996.927 225.352 993.77C223.857 991.086 222.332 986.418 222.332 986.418C222.332 986.418 221.367 981.224 220.942 977.827C220.397 973.471 221.674 965.27 221.674 965.27Z" fill="white" stroke="black" stroke-width="11.9103" stroke-linecap="round"/>
<path d="M298.337 666.885C298.337 666.885 298.459 660.935 299.47 657.035C300.574 652.778 301.113 650.131 303.972 646.206C308.663 639.764 313.98 636.651 321.511 634.638C331.249 632.034 336.036 635.962 343.458 639.735C357.021 646.63 366.219 669.66 366.219 669.66C366.219 669.66 372.167 681.232 373.566 689.724C374.375 694.631 374.561 697.514 374.359 702.723C373.858 715.645 364.483 736.849 364.483 736.849C364.483 736.849 359.884 744.545 355.125 747.198C349.758 750.19 344.779 750.898 339.539 749.358C334.312 747.822 328.431 742.262 328.431 742.262C328.431 742.262 319.137 733.23 313.839 726.895C309.971 722.269 307.443 719.899 304.496 714.611C301.992 710.118 299.439 702.3 299.439 702.3C299.439 702.3 297.823 693.603 297.111 687.913C296.199 680.619 298.337 666.885 298.337 666.885Z" fill="white" stroke="black" stroke-width="11.9103" stroke-linecap="round"/>
<path d="M114.368 1208.12C114.368 1208.12 114.414 1205.9 114.792 1204.44C115.205 1202.85 115.406 1201.86 116.476 1200.39C118.23 1197.98 120.218 1196.81 123.034 1196.06C126.676 1195.09 128.466 1196.56 131.242 1197.97C136.313 1200.55 139.753 1209.16 139.753 1209.16C139.753 1209.16 141.977 1213.49 142.5 1216.66C142.803 1218.5 142.872 1219.57 142.797 1221.52C142.61 1226.35 139.104 1234.28 139.104 1234.28C139.104 1234.28 137.384 1237.16 135.604 1238.15C133.597 1239.27 131.735 1239.54 129.776 1238.96C127.821 1238.39 125.622 1236.31 125.622 1236.31C125.622 1236.31 122.146 1232.93 120.165 1230.56C118.719 1228.83 117.774 1227.95 116.672 1225.97C115.735 1224.29 114.781 1221.36 114.781 1221.36C114.781 1221.36 114.176 1218.11 113.91 1215.98C113.569 1213.26 114.368 1208.12 114.368 1208.12Z" fill="white" stroke="black" stroke-width="11.9103" stroke-linecap="round"/>
<path d="M137.512 1199.43L145.607 1226.29C145.607 1226.29 177.919 1124.82 216.755 1068.59C231.523 1047.21 258.207 1016.54 258.207 1016.54L231.86 1006.9L216.755 970.067C216.755 970.067 202.441 1063.28 175.56 1111.77C157.144 1145 118.156 1193.54 118.156 1193.54L137.512 1199.43Z" fill="#0E0C0C" stroke="black" stroke-width="3.97009"/>
<path d="M265.932 964.399L270.98 987.823C270.98 987.823 270.38 910.179 294.008 853.38C313.386 806.797 361.991 743.521 361.991 743.521L333.381 750.678L304.053 721.425L295.406 683.008C295.406 683.008 297.445 800.138 270.513 867.787C257.904 899.457 223.666 948.634 223.666 948.634L246.153 942.522L265.932 964.399Z" fill="#0E0C0C" stroke="black" stroke-width="3.97009"/>
</svg>
