<svg width="529" height="775" viewBox="0 0 529 775" fill="none" xmlns="http://www.w3.org/2000/svg">
<mask id="path-1-inside-1_1368_1067" fill="white">
<path d="M136.925 578.819C136.925 630.795 157.573 680.643 194.325 717.396C231.078 754.148 280.926 774.796 332.902 774.796C384.878 774.796 434.726 754.148 471.479 717.396C508.231 680.643 528.879 630.795 528.879 578.819L332.902 578.819H136.925Z"/>
</mask>
<path d="M136.925 578.819C136.925 630.795 157.573 680.643 194.325 717.396C231.078 754.148 280.926 774.796 332.902 774.796C384.878 774.796 434.726 754.148 471.479 717.396C508.231 680.643 528.879 630.795 528.879 578.819L332.902 578.819H136.925Z" fill="#FFBBD0" stroke="black" stroke-width="7.68537" mask="url(#path-1-inside-1_1368_1067)"/>
<path d="M264.401 514.294C261.783 502.41 247.659 483.754 247.659 483.754C247.659 483.754 262.688 485.955 267.679 481.817C274.099 476.494 278.658 471.484 278.658 471.484C278.658 471.484 273.876 489.714 273.329 506.625C272.933 518.895 287.053 537.357 287.053 537.357C287.053 537.357 270.858 539.157 268.944 541.02C266.957 542.955 263.512 547.421 263.512 547.421C263.512 547.421 267.557 528.619 264.401 514.294Z" fill="black" stroke="black" stroke-width="1.29242"/>
<path d="M267.79 542.107C267.79 542.107 266.831 542.827 266.318 543.442C265.758 544.114 265.391 544.509 265.105 545.413C264.634 546.897 264.786 548.086 265.395 549.488C266.182 551.301 267.422 551.58 268.965 552.284C271.784 553.571 276.703 552.284 276.703 552.284C276.703 552.284 279.34 551.842 280.906 551.06C281.81 550.607 282.306 550.297 283.134 549.652C285.189 548.054 287.494 544.108 287.494 544.108C287.494 544.108 288.287 542.707 288.024 541.443C287.761 540.183 287.341 539.406 286.435 538.777C285.532 538.149 283.889 537.893 283.889 537.893C283.889 537.893 281.251 537.518 279.553 537.444C278.313 537.39 277.61 537.278 276.376 537.444C275.328 537.585 273.729 538.11 273.729 538.11C273.729 538.11 272.103 538.884 271.082 539.443C269.774 540.16 267.79 542.107 267.79 542.107Z" stroke="black" stroke-width="3.87725" stroke-linecap="round"/>
<path d="M246.746 465.814C246.746 465.814 245.139 467.018 244.28 468.048C243.342 469.174 242.728 469.835 242.248 471.349C241.46 473.834 241.715 475.825 242.734 478.173C244.052 481.21 246.129 481.676 248.712 482.856C253.434 485.011 261.672 482.856 261.672 482.856C261.672 482.856 266.088 482.116 268.709 480.805C270.224 480.048 271.054 479.528 272.441 478.449C275.882 475.772 279.743 469.164 279.743 469.164C279.743 469.164 281.071 466.818 280.629 464.7C280.189 462.592 279.485 461.29 277.969 460.236C276.457 459.185 273.705 458.756 273.705 458.756C273.705 458.756 269.287 458.128 266.444 458.004C264.368 457.913 263.19 457.725 261.124 458.004C259.369 458.241 256.692 459.12 256.692 459.12C256.692 459.12 253.968 460.415 252.259 461.352C250.067 462.553 246.746 465.814 246.746 465.814Z" stroke="black" stroke-width="3.87725" stroke-linecap="round"/>
<path d="M286.203 616.597C286.203 616.597 285.602 617.048 285.281 617.433C284.93 617.854 284.7 618.101 284.521 618.667C284.226 619.597 284.322 620.341 284.703 621.219C285.195 622.355 285.972 622.529 286.938 622.97C288.704 623.776 291.784 622.97 291.784 622.97C291.784 622.97 293.436 622.694 294.416 622.203C294.983 621.92 295.293 621.726 295.811 621.322C297.098 620.321 298.542 617.85 298.542 617.85C298.542 617.85 299.039 616.973 298.873 616.181C298.709 615.392 298.446 614.906 297.879 614.512C297.313 614.118 296.284 613.958 296.284 613.958C296.284 613.958 294.632 613.723 293.569 613.677C292.792 613.643 292.352 613.573 291.58 613.677C290.923 613.765 289.922 614.094 289.922 614.094C289.922 614.094 288.904 614.579 288.264 614.929C287.445 615.378 286.203 616.597 286.203 616.597Z" fill="#FFBBD0" stroke="black" stroke-width="3.87725" stroke-linecap="round"/>
<path d="M290.455 613.562C287.549 614.971 283.28 621.311 283.28 621.311C283.28 621.311 273.741 605.599 260.031 590.312C272.609 602.663 298.851 613.562 298.851 613.562C298.851 613.562 293.405 612.131 290.455 613.562Z" fill="black"/>
<path d="M283.28 621.311L282.728 621.647L283.252 622.51L283.816 621.672L283.28 621.311ZM290.455 613.562L290.173 612.98V612.98L290.455 613.562ZM298.851 613.562L298.687 614.187L299.099 612.965L298.851 613.562ZM260.031 590.312L260.484 589.851C260.235 589.607 259.837 589.604 259.585 589.845C259.333 590.086 259.317 590.484 259.55 590.744L260.031 590.312ZM283.28 621.311C283.816 621.672 283.816 621.672 283.816 621.672C283.816 621.672 283.816 621.672 283.817 621.672C283.817 621.672 283.817 621.672 283.817 621.672C283.817 621.671 283.818 621.67 283.819 621.669C283.821 621.666 283.824 621.662 283.828 621.656C283.835 621.645 283.847 621.627 283.863 621.605C283.894 621.559 283.94 621.492 284 621.405C284.121 621.232 284.296 620.982 284.517 620.677C284.957 620.068 285.574 619.241 286.28 618.373C286.986 617.503 287.775 616.598 288.56 615.829C289.355 615.05 290.107 614.449 290.737 614.143L290.455 613.562L290.173 612.98C289.351 613.379 288.479 614.099 287.656 614.906C286.823 615.722 286 616.667 285.276 617.558C284.552 618.45 283.92 619.297 283.469 619.92C283.244 620.232 283.063 620.488 282.939 620.667C282.877 620.757 282.828 620.827 282.796 620.875C282.779 620.899 282.767 620.918 282.758 620.93C282.754 620.937 282.75 620.942 282.748 620.945C282.747 620.947 282.746 620.948 282.745 620.949C282.745 620.949 282.745 620.95 282.745 620.95C282.745 620.95 282.745 620.95 282.745 620.95C282.744 620.95 282.744 620.951 283.28 621.311ZM290.455 613.562L290.737 614.143C292.037 613.513 293.975 613.49 295.693 613.668C296.532 613.755 297.284 613.885 297.827 613.994C298.097 614.048 298.315 614.097 298.463 614.132C298.538 614.15 298.595 614.164 298.632 614.173C298.651 614.178 298.666 614.181 298.675 614.184C298.679 614.185 298.682 614.186 298.684 614.186C298.685 614.186 298.686 614.187 298.686 614.187C298.687 614.187 298.687 614.187 298.687 614.187C298.687 614.187 298.687 614.187 298.687 614.187C298.687 614.187 298.687 614.187 298.851 613.562C299.015 612.937 299.015 612.937 299.015 612.937C299.015 612.937 299.014 612.937 299.014 612.937C299.014 612.936 299.014 612.936 299.013 612.936C299.012 612.936 299.011 612.936 299.009 612.935C299.006 612.934 299.001 612.933 298.995 612.932C298.984 612.929 298.967 612.924 298.945 612.919C298.902 612.908 298.839 612.893 298.759 612.874C298.598 612.836 298.367 612.784 298.081 612.727C297.51 612.612 296.716 612.474 295.826 612.382C294.083 612.202 291.824 612.18 290.173 612.98L290.455 613.562ZM298.851 613.562C299.099 612.965 299.099 612.965 299.098 612.965C299.098 612.965 299.098 612.965 299.098 612.965C299.097 612.964 299.096 612.964 299.094 612.963C299.091 612.962 299.087 612.96 299.081 612.957C299.068 612.952 299.05 612.945 299.025 612.934C298.976 612.913 298.902 612.882 298.805 612.841C298.612 612.759 298.325 612.637 297.956 612.476C297.217 612.156 296.147 611.684 294.823 611.078C292.174 609.867 288.511 608.124 284.458 605.996C276.334 601.733 266.701 595.956 260.484 589.851L260.031 590.312L259.578 590.774C265.939 597.019 275.715 602.867 283.857 607.141C287.936 609.282 291.621 611.035 294.285 612.253C295.618 612.863 296.696 613.338 297.441 613.662C297.814 613.824 298.104 613.948 298.301 614.031C298.399 614.073 298.474 614.105 298.525 614.126C298.55 614.137 298.57 614.145 298.583 614.15C298.589 614.153 298.594 614.155 298.598 614.156C298.599 614.157 298.601 614.157 298.601 614.158C298.602 614.158 298.602 614.158 298.602 614.158C298.603 614.158 298.603 614.158 298.851 613.562ZM260.031 590.312L259.55 590.744C266.383 598.362 272.179 606.09 276.268 611.916C278.312 614.828 279.929 617.263 281.033 618.969C281.586 619.822 282.01 620.492 282.296 620.949C282.439 621.178 282.547 621.353 282.62 621.47C282.656 621.529 282.683 621.573 282.701 621.603C282.71 621.618 282.717 621.629 282.722 621.636C282.724 621.64 282.726 621.643 282.727 621.644C282.727 621.645 282.728 621.646 282.728 621.646C282.728 621.646 282.728 621.647 282.728 621.647C282.728 621.647 282.728 621.647 283.28 621.311C283.833 620.976 283.833 620.976 283.833 620.976C283.833 620.976 283.832 620.975 283.832 620.975C283.832 620.975 283.831 620.974 283.831 620.973C283.83 620.971 283.828 620.968 283.825 620.964C283.82 620.956 283.813 620.944 283.804 620.929C283.785 620.898 283.757 620.852 283.72 620.792C283.646 620.672 283.536 620.495 283.392 620.264C283.102 619.801 282.674 619.125 282.118 618.266C281.006 616.549 279.381 614.1 277.326 611.173C273.218 605.321 267.39 597.549 260.512 589.881L260.031 590.312Z" fill="black"/>
<path d="M211.79 534.785C211.79 534.785 210.653 535.002 209.939 535.322C209.159 535.672 208.669 535.861 208.009 536.537C206.927 537.645 206.503 538.765 206.362 540.274C206.179 542.225 207.087 543.015 208.051 544.315C209.813 546.69 214.526 547.705 214.526 547.705C214.526 547.705 216.937 548.469 218.61 548.462C219.577 548.458 220.135 548.399 221.127 548.192C223.588 547.676 227.347 545.191 227.347 545.191C227.347 545.191 228.673 544.059 229.027 543.061C229.426 541.935 229.4 540.958 228.935 540.004C228.471 539.052 227.214 538.105 227.214 538.105C227.214 538.105 225.181 536.617 223.795 535.807C222.783 535.216 222.246 534.809 221.137 534.416C220.195 534.082 218.613 533.846 218.613 533.846C218.613 533.846 216.894 533.819 215.78 533.867C214.353 533.929 211.79 534.785 211.79 534.785Z" stroke="black" stroke-width="3.87725" stroke-linecap="round"/>
<path d="M152.123 453.553C152.123 453.553 150.22 453.915 149.023 454.452C147.717 455.038 146.897 455.355 145.792 456.486C143.98 458.342 143.27 460.218 143.033 462.744C142.727 466.012 144.248 467.335 145.863 469.511C148.813 473.49 156.705 475.189 156.705 475.189C156.705 475.189 160.743 476.469 163.545 476.457C165.164 476.449 166.099 476.352 167.76 476.004C171.881 475.141 178.176 470.978 178.176 470.978C178.176 470.978 180.396 469.084 180.989 467.412C181.657 465.527 181.614 463.89 180.835 462.292C180.057 460.698 177.953 459.113 177.953 459.113C177.953 459.113 174.549 456.621 172.227 455.265C170.532 454.275 169.634 453.592 167.777 452.934C166.198 452.375 163.55 451.981 163.55 451.981C163.55 451.981 160.671 451.935 158.806 452.016C156.415 452.12 152.123 453.553 152.123 453.553Z" stroke="black" stroke-width="3.87725" stroke-linecap="round"/>
<path d="M195.959 504.42C188.592 490.86 182.273 467.437 182.273 467.437C182.273 467.437 174.573 475.071 168.189 476.65C159.977 478.681 146.801 471.937 146.801 471.937C146.801 471.937 172.379 489.684 185.626 504.42C195.238 515.113 205.303 541.822 205.303 541.822C205.303 541.822 210.737 533.837 213.396 533.482C216.157 533.113 221.791 533.482 221.791 533.482C221.791 533.482 204.838 520.766 195.959 504.42Z" fill="black" stroke="black" stroke-width="1.29242"/>
<path d="M334.413 510.839C334.413 510.839 334.939 509.809 335.125 509.048C335.327 508.217 335.478 507.714 335.349 506.779C335.138 505.245 334.514 504.222 333.409 503.185C331.98 501.844 330.799 502.076 329.181 502.04C326.224 501.974 322.532 505.073 322.532 505.073C322.532 505.073 320.449 506.508 319.428 507.834C318.839 508.6 318.542 509.076 318.097 509.987C316.995 512.246 316.651 516.74 316.651 516.74C316.651 516.74 316.731 518.481 317.302 519.373C317.946 520.379 318.734 520.958 319.773 521.176C320.81 521.393 322.328 520.982 322.328 520.982C322.328 520.982 324.75 520.29 326.24 519.692C327.328 519.255 327.979 519.082 328.97 518.447C329.812 517.908 330.968 516.803 330.968 516.803C330.968 516.803 332.044 515.462 332.69 514.553C333.516 513.388 334.413 510.839 334.413 510.839Z" stroke="black" stroke-width="3.87725" stroke-linecap="round"/>
<path d="M358.37 413.451C358.37 413.451 359.251 411.726 359.561 410.451C359.9 409.06 360.153 408.218 359.938 406.652C359.584 404.082 358.538 402.371 356.688 400.633C354.296 398.387 352.318 398.777 349.609 398.716C344.657 398.605 338.473 403.795 338.473 403.795C338.473 403.795 334.985 406.198 333.276 408.418C332.288 409.701 331.791 410.499 331.047 412.024C329.201 415.808 328.625 423.333 328.625 423.333C328.625 423.333 328.759 426.249 329.715 427.742C330.794 429.427 332.113 430.397 333.853 430.762C335.589 431.126 338.132 430.437 338.132 430.437C338.132 430.437 342.188 429.277 344.683 428.276C346.505 427.545 347.595 427.254 349.254 426.191C350.665 425.288 352.601 423.439 352.601 423.439C352.601 423.439 354.403 421.193 355.484 419.671C356.868 417.719 358.37 413.451 358.37 413.451Z" stroke="black" stroke-width="3.87725" stroke-linecap="round"/>
<path d="M327.796 597.015C327.796 597.015 328.126 596.37 328.242 595.893C328.369 595.373 328.463 595.058 328.383 594.473C328.251 593.512 327.86 592.871 327.168 592.222C326.273 591.382 325.534 591.528 324.52 591.505C322.669 591.463 320.356 593.404 320.356 593.404C320.356 593.404 319.052 594.303 318.413 595.133C318.043 595.613 317.857 595.911 317.579 596.481C316.889 597.896 316.673 600.71 316.673 600.71C316.673 600.71 316.723 601.801 317.081 602.359C317.485 602.989 317.978 603.352 318.628 603.488C319.278 603.625 320.228 603.367 320.228 603.367C320.228 603.367 321.745 602.933 322.678 602.559C323.36 602.285 323.767 602.177 324.388 601.779C324.915 601.442 325.639 600.75 325.639 600.75C325.639 600.75 326.313 599.91 326.717 599.341C327.235 598.611 327.796 597.015 327.796 597.015Z" fill="#FFBBD0" stroke="black" stroke-width="3.87725" stroke-linecap="round"/>
<path d="M322.497 590.957L316.039 597.415C316.039 597.415 322.395 563.337 319.914 541.23C318.97 532.823 316.039 519.918 316.039 519.918L325.08 521.21L333.476 515.397C333.476 515.397 324.837 541.91 325.08 559.958C325.247 572.323 328.955 592.249 328.955 592.249L322.497 590.957Z" fill="black" stroke="black" stroke-width="1.29242"/>
<path d="M321.855 503.773L316.742 510.055C316.742 510.055 328.928 487.537 330.896 467.608C332.511 451.263 328.313 425.63 328.313 425.63L335.417 432.088L348.333 428.214L356.729 418.526C356.729 418.526 338.108 451.808 335.417 475.358C334.157 486.383 336.331 505.82 336.331 505.82L330.896 500.544L321.855 503.773Z" fill="black" stroke="black" stroke-width="1.29242"/>
<path d="M318.785 303.229C318.785 303.229 318.753 304.768 318.492 305.776C318.206 306.878 318.067 307.562 317.327 308.578C316.114 310.244 314.738 311.049 312.79 311.57C310.271 312.244 309.033 311.228 307.113 310.252C303.605 308.468 301.226 302.511 301.226 302.511C301.226 302.511 299.687 299.518 299.325 297.321C299.116 296.051 299.068 295.306 299.12 293.958C299.25 290.616 301.675 285.131 301.675 285.131C301.675 285.131 302.864 283.14 304.095 282.454C305.484 281.68 306.772 281.497 308.127 281.895C309.479 282.293 311 283.731 311 283.731C311 283.731 313.405 286.067 314.775 287.706C315.775 288.902 316.429 289.515 317.192 290.883C317.839 292.046 318.5 294.068 318.5 294.068C318.5 294.068 318.918 296.318 319.102 297.789C319.338 299.676 318.785 303.229 318.785 303.229Z" stroke="black" stroke-width="5.15931" stroke-linecap="round"/>
<path d="M285.573 432.484C285.573 432.484 285.52 435.061 285.082 436.75C284.604 438.595 284.37 439.741 283.132 441.442C281.1 444.232 278.797 445.58 275.534 446.453C271.316 447.581 269.242 445.879 266.027 444.244C260.152 441.258 256.168 431.282 256.168 431.282C256.168 431.282 253.591 426.269 252.985 422.59C252.635 420.464 252.554 419.216 252.642 416.96C252.858 411.362 256.92 402.177 256.92 402.177C256.92 402.177 258.912 398.843 260.973 397.694C263.298 396.398 265.455 396.091 267.725 396.758C269.989 397.423 272.536 399.832 272.536 399.832C272.536 399.832 276.563 403.744 278.858 406.488C280.533 408.492 281.628 409.519 282.905 411.809C283.99 413.756 285.095 417.143 285.095 417.143C285.095 417.143 285.795 420.91 286.104 423.375C286.499 426.534 285.573 432.484 285.573 432.484Z" stroke="black" stroke-width="5.15931" stroke-linecap="round"/>
<path d="M365.27 198.031C365.27 198.031 365.25 198.994 365.086 199.626C364.907 200.316 364.82 200.744 364.357 201.38C363.597 202.424 362.736 202.928 361.516 203.254C359.938 203.676 359.163 203.04 357.96 202.429C355.763 201.312 354.273 197.581 354.273 197.581C354.273 197.581 353.31 195.707 353.083 194.331C352.952 193.536 352.922 193.069 352.955 192.225C353.036 190.132 354.555 186.697 354.555 186.697C354.555 186.697 355.3 185.45 356.071 185.021C356.94 184.536 357.747 184.421 358.595 184.671C359.442 184.92 360.395 185.82 360.395 185.82C360.395 185.82 361.9 187.283 362.758 188.31C363.385 189.059 363.795 189.443 364.272 190.299C364.678 191.027 365.091 192.294 365.091 192.294C365.091 192.294 365.353 193.703 365.468 194.624C365.616 195.806 365.27 198.031 365.27 198.031Z" stroke="black" stroke-width="5.15931" stroke-linecap="round"/>
<path d="M355.244 201.798L351.738 190.162C351.738 190.162 337.741 234.117 320.918 258.473C314.521 267.735 302.961 281.02 302.961 281.02L314.374 285.196L320.572 298.283C320.572 298.283 327.118 260.774 338.763 239.767C346.74 225.376 363.629 204.349 363.629 204.349L355.244 201.798Z" fill="black" stroke="black" stroke-width="1.71977"/>
<path d="M299.613 303.607L297.628 294.842C297.628 294.842 297.686 327.094 287.45 351.698C279.056 371.877 257.303 398.876 257.303 398.876L270.395 396.186L283.099 408.859L286.845 425.5C286.845 425.5 285.961 374.761 297.628 345.457C303.09 331.738 317.923 310.46 317.923 310.46L308.18 313.083L299.613 303.607Z" fill="black" stroke="black" stroke-width="1.71977"/>
<path d="M184.111 371.15C182.041 386.699 190.92 415.524 190.92 415.524C190.92 415.524 173.687 406.231 165.817 409.041C155.694 412.657 147.962 416.715 147.962 416.715C147.962 416.715 161.794 396.743 169.915 376.501C175.807 361.814 166.846 333.226 166.846 333.226C166.846 333.226 177.36 344.61 180.5 343.197C183.761 341.73 199.798 331.418 199.798 331.418C199.798 331.418 186.607 352.408 184.111 371.15Z" fill="black" stroke="black" stroke-width="1.66594"/>
<path d="M184.106 437.654C184.106 437.654 186.584 436.904 188.079 436.035C189.711 435.086 190.745 434.555 191.995 432.933C194.046 430.271 194.615 427.747 194.416 424.453C194.159 420.194 191.85 418.713 189.24 416.145C184.472 411.452 173.544 410.43 173.544 410.43C173.544 410.43 167.869 409.378 164.116 409.809C161.946 410.059 160.712 410.323 158.557 411.017C153.209 412.742 145.618 419.042 145.618 419.042C145.618 419.042 142.974 421.298 142.575 424.059C142.178 426.806 142.457 428.693 143.828 430.639C145.195 432.579 148.34 434.312 148.34 434.312C148.34 434.312 153.414 437.021 156.803 438.425C159.278 439.451 160.621 440.198 163.246 440.772C165.477 441.259 169.107 441.375 169.107 441.375C169.107 441.375 172.977 441.007 175.461 440.626C178.645 440.138 184.106 437.654 184.106 437.654Z" stroke="black" stroke-width="4.99782" stroke-linecap="round"/>
<path d="M122.788 158.298C122.788 158.298 122.829 160.266 123.163 161.555C123.528 162.964 123.707 163.839 124.652 165.137C126.204 167.268 127.962 168.297 130.453 168.963C133.674 169.825 135.258 168.525 137.712 167.278C142.198 164.997 145.24 157.38 145.24 157.38C145.24 157.38 147.208 153.552 147.671 150.744C147.938 149.12 148 148.167 147.933 146.444C147.767 142.17 144.666 135.157 144.666 135.157C144.666 135.157 143.145 132.611 141.571 131.734C139.796 130.744 138.149 130.51 136.416 131.019C134.687 131.527 132.742 133.366 132.742 133.366C132.742 133.366 129.668 136.354 127.916 138.449C126.636 139.979 125.8 140.763 124.826 142.512C123.997 143.998 123.153 146.584 123.153 146.584C123.153 146.584 122.618 149.461 122.383 151.343C122.081 153.755 122.788 158.298 122.788 158.298Z" stroke="black" stroke-width="6.59701" stroke-linecap="round"/>
<path d="M165.253 323.571C165.253 323.571 165.32 326.867 165.88 329.027C166.492 331.385 166.79 332.851 168.374 335.026C170.972 338.593 173.917 340.318 178.089 341.433C183.483 342.875 186.134 340.7 190.245 338.61C197.757 334.791 202.852 322.035 202.852 322.035C202.852 322.035 206.147 315.625 206.922 310.921C207.37 308.203 207.472 306.607 207.361 303.721C207.083 296.564 201.891 284.819 201.891 284.819C201.891 284.819 199.343 280.556 196.707 279.087C193.734 277.43 190.977 277.037 188.074 277.89C185.179 278.741 181.922 281.821 181.922 281.821C181.922 281.821 176.773 286.824 173.839 290.333C171.697 292.895 170.297 294.207 168.664 297.136C167.277 299.625 165.863 303.956 165.863 303.956C165.863 303.956 164.968 308.773 164.574 311.924C164.068 315.964 165.253 323.571 165.253 323.571Z" stroke="black" stroke-width="6.59701" stroke-linecap="round"/>
<path d="M63.3495 23.7849C63.3495 23.7849 63.3747 25.0173 63.5841 25.825C63.8128 26.7069 63.9244 27.2551 64.5166 28.0682C65.4882 29.4024 66.5895 30.0471 68.1494 30.4643C70.1665 31.0036 71.1581 30.19 72.6954 29.4084C75.5046 27.9803 77.4097 23.2102 77.4097 23.2102C77.4097 23.2102 78.6417 20.8133 78.9316 19.0543C79.0991 18.0378 79.1375 17.4408 79.0958 16.3619C78.9921 13.6852 77.0502 9.29334 77.0502 9.29334C77.0502 9.29334 76.0977 7.69926 75.1119 7.14975C74.0002 6.53004 72.9689 6.38339 71.8836 6.70236C70.801 7.02053 69.5829 8.17208 69.5829 8.17208C69.5829 8.17208 67.6576 10.0429 66.5604 11.3551C65.7592 12.3132 65.2355 12.8041 64.6252 13.8994C64.1065 14.8302 63.5778 16.4495 63.5778 16.4495C63.5778 16.4495 63.243 18.2509 63.0956 19.4295C62.9066 20.9402 63.3495 23.7849 63.3495 23.7849Z" stroke="black" stroke-width="6.59701" stroke-linecap="round"/>
<path d="M76.1741 28.6013L80.6581 13.7225C80.6581 13.7225 98.5554 69.9257 120.066 101.069C128.246 112.912 143.026 129.899 143.026 129.899L128.433 135.239L120.066 155.641C120.066 155.641 112.138 104.011 97.2488 77.1509C87.0484 58.749 65.4532 31.8624 65.4532 31.8624L76.1741 28.6013Z" fill="black" stroke="black" stroke-width="2.199"/>
<path d="M147.301 158.781L150.098 145.806C150.098 145.806 149.765 188.813 162.853 220.273C173.586 246.075 200.508 281.123 200.508 281.123L184.661 277.158L168.417 293.362L163.627 314.641C163.627 314.641 164.757 249.763 149.839 212.293C142.855 194.751 123.891 167.513 123.891 167.513L136.346 170.898L147.301 158.781Z" fill="black" stroke="black" stroke-width="2.199"/>
<path d="M332.522 686.083C332.522 686.083 332.746 685.645 332.825 685.322C332.911 684.969 332.975 684.755 332.92 684.358C332.83 683.706 332.565 683.272 332.096 682.831C331.489 682.261 330.987 682.36 330.299 682.344C329.043 682.316 327.473 683.633 327.473 683.633C327.473 683.633 326.588 684.243 326.155 684.806C325.904 685.132 325.778 685.334 325.589 685.721C325.121 686.681 324.975 688.591 324.975 688.591C324.975 688.591 325.009 689.33 325.251 689.709C325.525 690.137 325.86 690.383 326.301 690.476C326.742 690.568 327.387 690.393 327.387 690.393C327.387 690.393 328.416 690.099 329.049 689.845C329.512 689.659 329.788 689.586 330.209 689.316C330.567 689.087 331.058 688.617 331.058 688.617C331.058 688.617 331.516 688.048 331.79 687.661C332.141 687.166 332.522 686.083 332.522 686.083Z" fill="#FFBBD0" stroke="black" stroke-width="3.84268" stroke-linecap="round"/>
</svg>
