<svg width="1222" height="1252" viewBox="0 0 1222 1252" fill="none" xmlns="http://www.w3.org/2000/svg">
<mask id="path-1-inside-1_1368_1068" fill="white">
<path d="M1221.56 408.863C1221.56 316.291 1186.15 227.51 1123.12 162.052C1060.09 96.5935 974.602 59.8193 885.465 59.8193C796.327 59.8193 710.84 96.5935 647.811 162.052C584.781 227.51 549.371 316.291 549.371 408.863L885.465 408.863H1221.56Z"/>
</mask>
<path d="M1221.56 408.863C1221.56 316.291 1186.15 227.51 1123.12 162.052C1060.09 96.5935 974.602 59.8193 885.465 59.8193C796.327 59.8193 710.84 96.5935 647.811 162.052C584.781 227.51 549.371 316.291 549.371 408.863L885.465 408.863H1221.56Z" fill="#FFBBD0" stroke="black" stroke-width="7.68537" mask="url(#path-1-inside-1_1368_1068)"/>
<path d="M856.7 322.554C851.974 344.008 826.475 377.69 826.475 377.69C826.475 377.69 853.609 373.718 862.619 381.188C874.209 390.798 882.44 399.844 882.44 399.844C882.44 399.844 873.807 366.93 872.82 336.399C872.104 314.246 897.598 280.916 897.598 280.916C897.598 280.916 868.359 277.666 864.904 274.302C861.315 270.809 855.096 262.746 855.096 262.746C855.096 262.746 862.398 296.692 856.7 322.554Z" fill="#0E0C0C" stroke="black" stroke-width="2.33334"/>
<path d="M862.828 272.339C862.828 272.339 861.096 271.041 860.17 269.93C859.159 268.717 858.497 268.004 857.979 266.372C857.13 263.693 857.405 261.546 858.504 259.015C859.924 255.741 862.163 255.238 864.949 253.967C870.039 251.643 878.92 253.967 878.92 253.967C878.92 253.967 883.68 254.764 886.507 256.177C888.14 256.994 889.035 257.555 890.53 258.718C894.24 261.603 898.402 268.727 898.402 268.727C898.402 268.727 899.834 271.256 899.358 273.54C898.884 275.813 898.124 277.216 896.49 278.353C894.86 279.486 891.893 279.948 891.893 279.948C891.893 279.948 887.13 280.625 884.065 280.759C881.827 280.857 880.557 281.059 878.33 280.759C876.437 280.504 873.551 279.556 873.551 279.556C873.551 279.556 870.615 278.16 868.772 277.149C866.409 275.855 862.828 272.339 862.828 272.339Z" fill="white" stroke="black" stroke-width="7.00001" stroke-linecap="round"/>
<path d="M824.842 410.08C824.842 410.08 821.941 407.906 820.391 406.045C818.698 404.014 817.59 402.82 816.722 400.086C815.299 395.6 815.76 392.005 817.6 387.766C819.979 382.284 823.728 381.442 828.393 379.313C836.918 375.421 851.79 379.313 851.79 379.313C851.79 379.313 859.762 380.648 864.496 383.014C867.231 384.382 868.729 385.321 871.233 387.268C877.445 392.101 884.415 404.031 884.415 404.031C884.415 404.031 886.814 408.266 886.016 412.09C885.222 415.897 883.951 418.247 881.214 420.15C878.484 422.048 873.515 422.821 873.515 422.821C873.515 422.821 865.539 423.956 860.406 424.18C856.658 424.343 854.531 424.683 850.802 424.18C847.633 423.752 842.799 422.165 842.799 422.165C842.799 422.165 837.882 419.826 834.796 418.135C830.839 415.967 824.842 410.08 824.842 410.08Z" fill="white" stroke="black" stroke-width="7.00001" stroke-linecap="round"/>
<path d="M762.778 580.986C759.04 552.914 775.07 500.872 775.07 500.872C775.07 500.872 743.957 517.651 729.748 512.577C711.473 506.05 697.513 498.723 697.513 498.723C697.513 498.723 722.486 534.78 737.147 571.325C747.784 597.841 731.606 649.454 731.606 649.454C731.606 649.454 768.454 640.496 774.123 643.046C780.01 645.694 791.099 652.718 791.099 652.718C791.099 652.718 767.283 614.823 762.778 580.986Z" fill="#0E0C0C" stroke="black" stroke-width="3.0077"/>
<path d="M777.505 644.506C777.505 644.506 780.176 645.314 781.787 646.251C783.547 647.275 784.662 647.846 786.01 649.595C788.221 652.465 788.834 655.187 788.62 658.737C788.343 663.329 785.853 664.925 783.04 667.694C777.899 672.753 766.118 673.856 766.118 673.856C766.118 673.856 760 674.99 755.953 674.525C753.614 674.256 752.284 673.971 749.96 673.222C744.194 671.363 736.011 664.571 736.011 664.571C736.011 664.571 733.161 662.139 732.731 659.163C732.302 656.2 732.603 654.166 734.081 652.069C735.556 649.977 738.946 648.109 738.946 648.109C738.946 648.109 744.416 645.188 748.07 643.674C750.738 642.568 752.186 641.763 755.016 641.145C757.42 640.619 761.335 640.494 761.335 640.494C761.335 640.494 765.507 640.891 768.185 641.301C771.617 641.827 777.505 644.506 777.505 644.506Z" stroke="black" stroke-width="9.0231" stroke-linecap="round"/>
<path d="M762.761 460.919C762.761 460.919 767.234 462.273 769.933 463.843C772.879 465.556 774.748 466.513 777.004 469.443C780.707 474.249 781.733 478.806 781.375 484.753C780.911 492.441 776.742 495.115 772.031 499.751C763.422 508.224 743.692 510.07 743.692 510.07C743.692 510.07 733.447 511.97 726.67 511.191C722.754 510.74 720.526 510.264 716.634 509.009C706.978 505.896 693.274 494.521 693.274 494.521C693.274 494.521 688.501 490.448 687.781 485.465C687.063 480.504 687.567 477.097 690.042 473.585C692.511 470.081 698.189 466.954 698.189 466.954C698.189 466.954 707.349 462.062 713.468 459.526C717.936 457.675 720.361 456.326 725.1 455.291C729.127 454.411 735.682 454.202 735.682 454.202C735.682 454.202 742.669 454.865 747.153 455.553C752.902 456.434 762.761 460.919 762.761 460.919Z" fill="white" stroke="black" stroke-width="9.0231" stroke-linecap="round"/>
<path d="M895.88 137.853C895.88 137.853 894.795 137.04 894.215 136.344C893.582 135.585 893.168 135.138 892.844 134.116C892.312 132.438 892.484 131.094 893.172 129.509C894.062 127.459 895.464 127.144 897.208 126.348C900.396 124.892 905.957 126.348 905.957 126.348C905.957 126.348 908.939 126.847 910.709 127.732C911.732 128.243 912.292 128.594 913.228 129.323C915.551 131.13 918.158 135.591 918.158 135.591C918.158 135.591 919.054 137.175 918.756 138.605C918.459 140.028 917.984 140.907 916.961 141.619C915.94 142.329 914.081 142.618 914.081 142.618C914.081 142.618 911.099 143.042 909.179 143.126C907.778 143.187 906.982 143.314 905.588 143.126C904.403 142.966 902.595 142.372 902.595 142.372C902.595 142.372 900.757 141.498 899.602 140.865C898.123 140.054 895.88 137.853 895.88 137.853Z" fill="white" stroke="black" stroke-width="7.00001" stroke-linecap="round"/>
<path d="M903.557 143.333C898.31 140.788 890.603 129.342 890.603 129.342C890.603 129.342 873.381 157.71 848.629 185.308C871.336 163.01 918.714 143.333 918.714 143.333C918.714 143.333 908.882 145.917 903.557 143.333Z" fill="black"/>
<path d="M890.603 129.342L889.606 128.737L890.552 127.178L891.571 128.69L890.603 129.342ZM903.557 143.333L903.047 144.383V144.383L903.557 143.333ZM918.714 143.333L918.417 142.205L919.161 144.411L918.714 143.333ZM848.629 185.308L849.446 186.14C848.997 186.581 848.278 186.586 847.823 186.151C847.367 185.716 847.34 184.998 847.76 184.529L848.629 185.308ZM890.603 129.342C891.571 128.69 891.571 128.69 891.571 128.69C891.571 128.69 891.571 128.69 891.571 128.691C891.571 128.691 891.571 128.691 891.572 128.692C891.573 128.693 891.574 128.695 891.575 128.697C891.579 128.702 891.584 128.71 891.591 128.72C891.605 128.741 891.626 128.772 891.654 128.813C891.71 128.895 891.794 129.017 891.903 129.173C892.12 129.486 892.437 129.937 892.835 130.487C893.631 131.587 894.744 133.079 896.018 134.648C897.294 136.219 898.718 137.851 900.136 139.24C901.57 140.646 902.927 141.731 904.066 142.284L903.557 143.333L903.047 144.383C901.563 143.663 899.989 142.363 898.503 140.907C896.999 139.434 895.514 137.728 894.207 136.119C892.898 134.507 891.757 132.979 890.944 131.854C890.537 131.291 890.211 130.828 889.987 130.505C889.874 130.343 889.787 130.216 889.728 130.129C889.698 130.086 889.675 130.053 889.66 130.03C889.652 130.018 889.646 130.01 889.642 130.004C889.64 130 889.638 129.998 889.637 129.996C889.637 129.996 889.636 129.995 889.636 129.994C889.636 129.994 889.636 129.994 889.636 129.994C889.635 129.994 889.635 129.994 890.603 129.342ZM903.557 143.333L904.066 142.284C906.412 143.422 909.912 143.462 913.012 143.142C914.528 142.985 915.886 142.749 916.865 142.553C917.353 142.455 917.746 142.367 918.014 142.304C918.148 142.272 918.251 142.247 918.32 142.23C918.354 142.221 918.379 142.215 918.396 142.211C918.404 142.208 918.41 142.207 918.414 142.206C918.415 142.206 918.417 142.205 918.417 142.205C918.418 142.205 918.418 142.205 918.418 142.205C918.418 142.205 918.418 142.205 918.418 142.205C918.418 142.205 918.417 142.205 918.714 143.333C919.01 144.462 919.01 144.462 919.01 144.462C919.01 144.462 919.009 144.462 919.009 144.462C919.009 144.462 919.008 144.462 919.007 144.463C919.005 144.463 919.003 144.464 919 144.465C918.994 144.466 918.986 144.468 918.975 144.471C918.954 144.476 918.924 144.484 918.885 144.494C918.806 144.513 918.693 144.541 918.548 144.575C918.258 144.643 917.84 144.737 917.324 144.841C916.293 145.048 914.86 145.296 913.252 145.463C910.106 145.788 906.027 145.828 903.047 144.383L903.557 143.333ZM918.714 143.333C919.161 144.411 919.161 144.411 919.161 144.411C919.161 144.411 919.16 144.411 919.16 144.412C919.158 144.412 919.156 144.413 919.154 144.414C919.148 144.416 919.14 144.42 919.129 144.424C919.107 144.434 919.073 144.448 919.029 144.466C918.94 144.504 918.807 144.56 918.632 144.634C918.282 144.782 917.765 145.003 917.098 145.293C915.765 145.872 913.832 146.724 911.441 147.817C906.659 150.004 900.047 153.151 892.729 156.992C878.062 164.69 860.671 175.118 849.446 186.14L848.629 185.308L847.811 184.475C859.294 173.199 876.945 162.641 891.644 154.926C899.009 151.061 905.66 147.895 910.471 145.695C912.877 144.595 914.823 143.736 916.169 143.152C916.842 142.86 917.365 142.637 917.721 142.486C917.898 142.41 918.034 142.353 918.126 142.315C918.172 142.295 918.207 142.281 918.23 142.271C918.242 142.266 918.251 142.262 918.257 142.26C918.26 142.259 918.262 142.258 918.264 142.257C918.265 142.257 918.265 142.256 918.266 142.256C918.266 142.256 918.266 142.256 918.714 143.333ZM848.629 185.308L847.76 184.529C860.096 170.774 870.561 156.822 877.943 146.305C881.634 141.048 884.552 136.652 886.546 133.572C887.543 132.031 888.31 130.821 888.826 129.996C889.084 129.583 889.28 129.268 889.41 129.055C889.476 128.949 889.525 128.869 889.558 128.815C889.574 128.789 889.586 128.769 889.594 128.756C889.598 128.749 889.601 128.744 889.603 128.741C889.604 128.739 889.605 128.738 889.605 128.737C889.606 128.737 889.606 128.737 889.606 128.737C889.606 128.737 889.606 128.737 890.603 129.342C891.6 129.947 891.6 129.948 891.6 129.948C891.6 129.948 891.6 129.949 891.599 129.949C891.599 129.95 891.598 129.952 891.597 129.953C891.595 129.957 891.591 129.963 891.587 129.97C891.578 129.984 891.565 130.005 891.548 130.033C891.514 130.089 891.464 130.171 891.397 130.279C891.263 130.496 891.065 130.817 890.804 131.234C890.281 132.068 889.509 133.289 888.505 134.84C886.497 137.941 883.562 142.362 879.853 147.646C872.436 158.212 861.914 172.243 849.497 186.087L848.629 185.308Z" fill="black"/>
<path d="M980.33 11.5457C980.33 11.5457 980.737 12.3427 980.881 12.9313C981.037 13.5739 981.154 13.9629 981.054 14.6864C980.891 15.8735 980.408 16.6641 979.553 17.4666C978.448 18.5043 977.535 18.3243 976.283 18.3523C973.996 18.4034 971.139 16.0064 971.139 16.0064C971.139 16.0064 969.528 14.8962 968.738 13.8706C968.282 13.2779 968.052 12.9092 967.709 12.2047C966.856 10.4569 966.59 6.9807 966.59 6.9807C966.59 6.9807 966.652 5.63392 967.094 4.9439C967.592 4.16571 968.201 3.71776 969.005 3.5491C969.807 3.38086 970.981 3.69918 970.981 3.69918C970.981 3.69918 972.855 4.23476 974.008 4.69734C974.849 5.03508 975.353 5.16926 976.119 5.66029C976.771 6.07757 977.665 6.93183 977.665 6.93183C977.665 6.93183 978.498 7.9692 978.997 8.67245C979.637 9.57392 980.33 11.5457 980.33 11.5457Z" fill="white" stroke="black" stroke-width="7.00001" stroke-linecap="round"/>
<path d="M759.452 285.557C759.452 285.557 757.4 285.166 756.11 284.588C754.702 283.956 753.818 283.614 752.627 282.395C750.673 280.394 749.908 278.372 749.652 275.648C749.322 272.126 750.962 270.699 752.703 268.352C755.884 264.064 764.392 262.231 764.392 262.231C764.392 262.231 768.745 260.851 771.765 260.865C773.511 260.873 774.519 260.978 776.31 261.353C780.752 262.284 787.539 266.771 787.539 266.771C787.539 266.771 789.933 268.813 790.572 270.616C791.292 272.648 791.246 274.413 790.405 276.135C789.568 277.854 787.299 279.563 787.299 279.563C787.299 279.563 783.629 282.25 781.126 283.711C779.299 284.779 778.33 285.514 776.328 286.224C774.626 286.827 771.771 287.252 771.771 287.252C771.771 287.252 768.667 287.301 766.656 287.214C764.079 287.102 759.452 285.557 759.452 285.557Z" fill="white" stroke="black" stroke-width="7.00001" stroke-linecap="round"/>
<path d="M651.728 432.215C651.728 432.215 648.292 431.561 646.131 430.592C643.772 429.534 642.292 428.962 640.298 426.92C637.026 423.569 635.744 420.182 635.316 415.621C634.764 409.722 637.51 407.334 640.425 403.403C645.752 396.221 660 393.152 660 393.152C660 393.152 667.29 390.842 672.348 390.865C675.271 390.878 676.96 391.053 679.958 391.682C687.397 393.24 698.764 400.755 698.764 400.755C698.764 400.755 702.772 404.175 703.842 407.194C705.049 410.598 704.97 413.552 703.563 416.437C702.16 419.315 698.361 422.177 698.361 422.177C698.361 422.177 692.214 426.676 688.023 429.124C684.963 430.911 683.342 432.144 679.988 433.332C677.138 434.342 672.357 435.054 672.357 435.054C672.357 435.054 667.159 435.136 663.792 434.99C659.476 434.803 651.728 432.215 651.728 432.215Z" fill="white" stroke="black" stroke-width="7.00001" stroke-linecap="round"/>
<path d="M730.863 340.379C717.564 364.861 706.155 407.149 706.155 407.149C706.155 407.149 692.254 393.365 680.727 390.515C665.902 386.849 642.113 399.025 642.113 399.025C642.113 399.025 688.292 366.984 712.208 340.379C729.562 321.075 747.734 272.853 747.734 272.853C747.734 272.853 757.543 287.27 762.344 287.911C767.329 288.577 777.501 287.911 777.501 287.911C777.501 287.911 746.895 310.869 730.863 340.379Z" fill="#0E0C0C" stroke="black" stroke-width="2.33334"/>
<path d="M983.232 328.79C983.232 328.79 984.182 330.65 984.517 332.024C984.882 333.523 985.155 334.431 984.923 336.12C984.541 338.89 983.414 340.735 981.42 342.608C978.841 345.03 976.708 344.61 973.787 344.675C968.449 344.794 961.781 339.2 961.781 339.2C961.781 339.2 958.021 336.609 956.179 334.216C955.114 332.832 954.578 331.972 953.776 330.328C951.786 326.249 951.165 318.136 951.165 318.136C951.165 318.136 951.309 314.993 952.34 313.382C953.503 311.566 954.925 310.521 956.801 310.127C958.673 309.735 961.414 310.477 961.414 310.477C961.414 310.477 965.787 311.727 968.477 312.807C970.441 313.595 971.616 313.908 973.405 315.054C974.925 316.028 977.013 318.022 977.013 318.022C977.013 318.022 978.956 320.443 980.121 322.084C981.614 324.188 983.232 328.79 983.232 328.79Z" fill="white" stroke="black" stroke-width="7.00001" stroke-linecap="round"/>
<path d="M1026.48 504.615C1026.48 504.615 1028.07 507.73 1028.63 510.03C1029.24 512.542 1029.7 514.062 1029.31 516.889C1028.67 521.529 1026.79 524.619 1023.45 527.755C1019.13 531.811 1015.56 531.108 1010.66 531.217C1001.72 531.417 990.558 522.048 990.558 522.048C990.558 522.048 984.262 517.709 981.176 513.701C979.393 511.385 978.496 509.944 977.152 507.19C973.819 500.359 972.779 486.773 972.779 486.773C972.779 486.773 973.021 481.51 974.748 478.813C976.696 475.772 979.077 474.021 982.219 473.362C985.352 472.704 989.943 473.948 989.943 473.948C989.943 473.948 997.267 476.041 1001.77 477.849C1005.06 479.169 1007.03 479.694 1010.02 481.613C1012.57 483.244 1016.07 486.582 1016.07 486.582C1016.07 486.582 1019.32 490.637 1021.27 493.385C1023.77 496.908 1026.48 504.615 1026.48 504.615Z" fill="white" stroke="black" stroke-width="7.00001" stroke-linecap="round"/>
<path d="M971.292 173.206C971.292 173.206 971.887 174.371 972.096 175.231C972.325 176.17 972.496 176.739 972.35 177.796C972.112 179.531 971.406 180.686 970.157 181.859C968.542 183.376 967.206 183.113 965.377 183.154C962.034 183.229 957.859 179.725 957.859 179.725C957.859 179.725 955.504 178.103 954.35 176.604C953.683 175.737 953.348 175.199 952.845 174.169C951.599 171.615 951.21 166.534 951.21 166.534C951.21 166.534 951.3 164.566 951.946 163.557C952.675 162.42 953.565 161.765 954.74 161.519C955.912 161.273 957.628 161.738 957.628 161.738C957.628 161.738 960.367 162.521 962.052 163.197C963.282 163.69 964.017 163.887 965.138 164.604C966.09 165.214 967.397 166.463 967.397 166.463C967.397 166.463 968.614 167.979 969.343 169.007C970.278 170.324 971.292 173.206 971.292 173.206Z" fill="white" stroke="black" stroke-width="7.00001" stroke-linecap="round"/>
<path d="M961.722 184.141L950.062 172.482C950.062 172.482 961.538 234.008 957.058 273.92C955.355 289.097 950.062 312.396 950.062 312.396L966.386 310.064L981.543 320.558C981.543 320.558 965.947 272.691 966.386 240.107C966.686 217.784 973.382 181.809 973.382 181.809L961.722 184.141Z" fill="black" stroke="black" stroke-width="2.33334"/>
<path d="M960.559 341.546L951.328 330.204C951.328 330.204 973.328 370.859 976.882 406.839C979.797 436.348 972.218 482.626 972.218 482.626L985.044 470.966L1008.36 477.962L1023.52 495.451C1023.52 495.451 989.903 435.365 985.044 392.848C982.769 372.942 986.694 337.851 986.694 337.851L976.882 347.375L960.559 341.546Z" fill="#0E0C0C" stroke="black" stroke-width="2.33334"/>
<path d="M953.835 703.611C953.835 703.611 953.778 700.833 953.306 699.012C952.79 697.023 952.539 695.787 951.203 693.954C949.013 690.946 946.53 689.492 943.013 688.552C938.465 687.336 936.229 689.17 932.763 690.932C926.429 694.152 922.134 704.907 922.134 704.907C922.134 704.907 919.356 710.311 918.702 714.277C918.325 716.569 918.238 717.915 918.332 720.348C918.566 726.383 922.944 736.285 922.944 736.285C922.944 736.285 925.092 739.879 927.315 741.118C929.821 742.515 932.146 742.846 934.593 742.127C937.034 741.409 939.781 738.813 939.781 738.813C939.781 738.813 944.121 734.595 946.595 731.636C948.402 729.476 949.582 728.369 950.959 725.9C952.128 723.801 953.32 720.15 953.32 720.15C953.32 720.15 954.075 716.089 954.407 713.431C954.834 710.025 953.835 703.611 953.835 703.611Z" fill="white" stroke="black" stroke-width="9.31465" stroke-linecap="round"/>
<path d="M893.883 470.254C893.883 470.254 893.788 465.601 892.997 462.551C892.134 459.221 891.712 457.151 889.476 454.081C885.808 449.044 881.649 446.609 875.759 445.034C868.144 442.998 864.4 446.07 858.595 449.021C847.988 454.413 840.795 472.424 840.795 472.424C840.795 472.424 836.143 481.474 835.049 488.115C834.416 491.953 834.271 494.208 834.429 498.281C834.82 508.388 842.152 524.97 842.152 524.97C842.152 524.97 845.749 530.989 849.471 533.064C853.669 535.404 857.562 535.958 861.66 534.753C865.748 533.552 870.347 529.204 870.347 529.204C870.347 529.204 877.616 522.14 881.759 517.186C884.784 513.568 886.762 511.715 889.066 507.579C891.025 504.065 893.021 497.951 893.021 497.951C893.021 497.951 894.285 491.149 894.842 486.699C895.555 480.995 893.883 470.254 893.883 470.254Z" fill="white" stroke="black" stroke-width="9.31465" stroke-linecap="round"/>
<path d="M1037.76 893.536C1037.76 893.536 1037.72 891.796 1037.43 890.656C1037.1 889.411 1036.95 888.637 1036.11 887.489C1034.74 885.605 1033.18 884.694 1030.98 884.106C1028.13 883.344 1026.73 884.493 1024.56 885.596C1020.6 887.613 1017.91 894.348 1017.91 894.348C1017.91 894.348 1016.17 897.732 1015.76 900.216C1015.52 901.651 1015.47 902.494 1015.53 904.017C1015.67 907.797 1018.41 913.998 1018.41 913.998C1018.41 913.998 1019.76 916.249 1021.15 917.024C1022.72 917.899 1024.18 918.106 1025.71 917.656C1027.24 917.207 1028.96 915.581 1028.96 915.581C1028.96 915.581 1031.68 912.939 1033.23 911.087C1034.36 909.734 1035.1 909.041 1035.96 907.494C1036.69 906.18 1037.44 903.894 1037.44 903.894C1037.44 903.894 1037.91 901.35 1038.12 899.686C1038.38 897.553 1037.76 893.536 1037.76 893.536Z" fill="white" stroke="black" stroke-width="9.31465" stroke-linecap="round"/>
<path d="M1019.66 886.737L1013.33 907.745C1013.33 907.745 988.057 828.389 957.685 784.416C946.135 767.695 925.266 743.709 925.266 743.709L945.871 736.169L957.061 712.542C957.061 712.542 968.879 780.261 989.902 818.187C1004.3 844.17 1034.8 882.132 1034.8 882.132L1019.66 886.737Z" fill="#0E0C0C" stroke="black" stroke-width="3.10488"/>
<path d="M919.223 702.93L915.641 718.755C915.641 718.755 915.744 660.527 897.266 616.107C882.11 579.676 842.838 530.932 842.838 530.932L866.473 535.787L889.409 512.908L896.172 482.864C896.172 482.864 894.577 574.468 915.64 627.373C925.501 652.142 952.282 690.557 952.282 690.557L934.691 685.822L919.223 702.93Z" fill="#0E0C0C" stroke="black" stroke-width="3.10488"/>
<path d="M652.065 965.27C652.065 965.27 652.138 961.717 652.741 959.389C653.401 956.846 653.722 955.266 655.43 952.922C658.231 949.075 661.406 947.216 665.903 946.014C671.718 944.459 674.577 946.805 679.009 949.058C687.107 953.175 692.6 966.927 692.6 966.927C692.6 966.927 696.152 973.837 696.987 978.908C697.47 981.839 697.581 983.56 697.461 986.67C697.162 994.387 691.563 1007.05 691.563 1007.05C691.563 1007.05 688.817 1011.64 685.975 1013.23C682.77 1015.02 679.797 1015.44 676.668 1014.52C673.547 1013.6 670.035 1010.28 670.035 1010.28C670.035 1010.28 664.485 1004.89 661.322 1001.1C659.012 998.343 657.502 996.927 655.743 993.77C654.247 991.086 652.723 986.418 652.723 986.418C652.723 986.418 651.758 981.224 651.333 977.827C650.788 973.471 652.065 965.27 652.065 965.27Z" fill="white" stroke="black" stroke-width="11.9103" stroke-linecap="round"/>
<path d="M728.728 666.885C728.728 666.885 728.85 660.935 729.861 657.035C730.965 652.778 731.504 650.131 734.363 646.206C739.054 639.764 744.371 636.651 751.902 634.638C761.64 632.034 766.427 635.962 773.849 639.735C787.411 646.63 796.609 669.66 796.609 669.66C796.609 669.66 802.557 681.232 803.957 689.724C804.766 694.631 804.951 697.514 804.749 702.723C804.249 715.645 794.874 736.849 794.874 736.849C794.874 736.849 790.275 744.545 785.516 747.198C780.148 750.19 775.17 750.898 769.93 749.358C764.703 747.822 758.822 742.262 758.822 742.262C758.822 742.262 749.527 733.23 744.23 726.895C740.362 722.269 737.834 719.899 734.887 714.611C732.383 710.118 729.83 702.3 729.83 702.3C729.83 702.3 728.214 693.603 727.502 687.913C726.589 680.619 728.728 666.885 728.728 666.885Z" fill="white" stroke="black" stroke-width="11.9103" stroke-linecap="round"/>
<path d="M544.759 1208.12C544.759 1208.12 544.805 1205.9 545.183 1204.44C545.596 1202.85 545.797 1201.86 546.866 1200.39C548.62 1197.98 550.609 1196.81 553.425 1196.06C557.066 1195.09 558.857 1196.56 561.632 1197.97C566.704 1200.55 570.143 1209.16 570.143 1209.16C570.143 1209.16 572.368 1213.49 572.891 1216.66C573.194 1218.5 573.263 1219.57 573.187 1221.52C573 1226.35 569.494 1234.28 569.494 1234.28C569.494 1234.28 567.775 1237.16 565.995 1238.15C563.988 1239.27 562.126 1239.54 560.167 1238.96C558.212 1238.39 556.013 1236.31 556.013 1236.31C556.013 1236.31 552.537 1232.93 550.556 1230.56C549.11 1228.83 548.164 1227.95 547.062 1225.97C546.126 1224.29 545.171 1221.36 545.171 1221.36C545.171 1221.36 544.567 1218.11 544.301 1215.98C543.959 1213.26 544.759 1208.12 544.759 1208.12Z" fill="white" stroke="black" stroke-width="11.9103" stroke-linecap="round"/>
<path d="M567.902 1199.43L575.998 1226.29C575.998 1226.29 608.31 1124.82 647.145 1068.59C661.913 1047.21 688.598 1016.54 688.598 1016.54L662.251 1006.9L647.146 970.067C647.146 970.067 632.832 1063.28 605.951 1111.77C587.535 1145 548.547 1193.54 548.547 1193.54L567.902 1199.43Z" fill="#0E0C0C" stroke="black" stroke-width="3.97009"/>
<path d="M696.322 964.399L701.371 987.823C701.371 987.823 700.771 910.179 724.399 853.38C743.777 806.797 792.382 743.521 792.382 743.521L763.772 750.678L734.444 721.425L725.797 683.008C725.797 683.008 727.836 800.138 700.903 867.787C688.294 899.457 654.057 948.634 654.057 948.634L676.543 942.522L696.322 964.399Z" fill="#0E0C0C" stroke="black" stroke-width="3.97009"/>
<mask id="path-30-inside-2_1368_1068" fill="white">
<path d="M136.925 588.682C136.925 640.659 157.573 690.506 194.325 727.259C231.078 764.012 280.926 784.659 332.902 784.659C384.878 784.659 434.726 764.012 471.479 727.259C508.231 690.506 528.879 640.659 528.879 588.682L332.902 588.682H136.925Z"/>
</mask>
<path d="M136.925 588.682C136.925 640.659 157.573 690.506 194.325 727.259C231.078 764.012 280.926 784.659 332.902 784.659C384.878 784.659 434.726 764.012 471.479 727.259C508.231 690.506 528.879 640.659 528.879 588.682L332.902 588.682H136.925Z" fill="#FFBBD0" stroke="black" stroke-width="7.68537" mask="url(#path-30-inside-2_1368_1068)"/>
<path d="M264.401 524.157C261.783 512.274 247.659 493.618 247.659 493.618C247.659 493.618 262.688 495.818 267.679 491.68C274.099 486.358 278.658 481.347 278.658 481.347C278.658 481.347 273.876 499.577 273.329 516.488C272.933 528.759 287.053 547.22 287.053 547.22C287.053 547.22 270.858 549.02 268.944 550.883C266.957 552.818 263.512 557.285 263.512 557.285C263.512 557.285 267.557 538.482 264.401 524.157Z" fill="black" stroke="black" stroke-width="1.29242"/>
<path d="M267.79 551.971C267.79 551.971 266.831 552.69 266.318 553.305C265.758 553.977 265.391 554.372 265.105 555.276C264.634 556.76 264.786 557.949 265.395 559.351C266.182 561.164 267.422 561.443 268.965 562.147C271.784 563.434 276.703 562.147 276.703 562.147C276.703 562.147 279.34 561.706 280.906 560.923C281.81 560.47 282.306 560.16 283.134 559.516C285.189 557.918 287.494 553.972 287.494 553.972C287.494 553.972 288.287 552.571 288.024 551.306C287.761 550.047 287.341 549.27 286.435 548.64C285.532 548.012 283.889 547.757 283.889 547.757C283.889 547.757 281.251 547.381 279.553 547.307C278.313 547.253 277.61 547.141 276.376 547.307C275.328 547.449 273.729 547.974 273.729 547.974C273.729 547.974 272.103 548.747 271.082 549.307C269.774 550.024 267.79 551.971 267.79 551.971Z" stroke="black" stroke-width="3.87725" stroke-linecap="round"/>
<path d="M246.746 475.677C246.746 475.677 245.139 476.881 244.28 477.912C243.342 479.037 242.728 479.698 242.248 481.212C241.46 483.697 241.715 485.688 242.734 488.037C244.052 491.073 246.129 491.539 248.712 492.719C253.434 494.874 261.672 492.719 261.672 492.719C261.672 492.719 266.088 491.979 268.709 490.668C270.224 489.911 271.054 489.391 272.441 488.312C275.882 485.636 279.743 479.028 279.743 479.028C279.743 479.028 281.071 476.682 280.629 474.563C280.189 472.455 279.485 471.154 277.969 470.099C276.457 469.048 273.705 468.62 273.705 468.62C273.705 468.62 269.287 467.991 266.444 467.867C264.368 467.777 263.19 467.589 261.124 467.867C259.369 468.104 256.692 468.983 256.692 468.983C256.692 468.983 253.968 470.278 252.259 471.215C250.067 472.416 246.746 475.677 246.746 475.677Z" stroke="black" stroke-width="3.87725" stroke-linecap="round"/>
<path d="M286.203 626.461C286.203 626.461 285.602 626.911 285.281 627.296C284.93 627.717 284.7 627.964 284.521 628.531C284.226 629.46 284.322 630.204 284.703 631.083C285.195 632.218 285.972 632.392 286.938 632.833C288.704 633.639 291.784 632.833 291.784 632.833C291.784 632.833 293.436 632.557 294.416 632.067C294.983 631.783 295.293 631.589 295.811 631.186C297.098 630.185 298.542 627.714 298.542 627.714C298.542 627.714 299.039 626.836 298.873 626.044C298.709 625.256 298.446 624.769 297.879 624.375C297.313 623.982 296.284 623.822 296.284 623.822C296.284 623.822 294.632 623.587 293.569 623.54C292.792 623.506 292.352 623.436 291.58 623.54C290.923 623.629 289.922 623.957 289.922 623.957C289.922 623.957 288.904 624.442 288.264 624.792C287.445 625.241 286.203 626.461 286.203 626.461Z" fill="#FFBBD0" stroke="black" stroke-width="3.87725" stroke-linecap="round"/>
<path d="M290.455 623.425C287.549 624.835 283.28 631.175 283.28 631.175C283.28 631.175 273.741 615.462 260.031 600.176C272.609 612.526 298.851 623.425 298.851 623.425C298.851 623.425 293.405 621.994 290.455 623.425Z" fill="black"/>
<path d="M283.28 631.175L282.728 631.51L283.252 632.374L283.816 631.536L283.28 631.175ZM290.455 623.425L290.173 622.844V622.844L290.455 623.425ZM298.851 623.425L298.687 624.05L299.099 622.828L298.851 623.425ZM260.031 600.176L260.484 599.715C260.235 599.47 259.837 599.468 259.585 599.709C259.333 599.95 259.317 600.347 259.55 600.607L260.031 600.176ZM283.28 631.175C283.816 631.536 283.816 631.536 283.816 631.536C283.816 631.536 283.816 631.536 283.817 631.536C283.817 631.535 283.817 631.535 283.817 631.535C283.817 631.534 283.818 631.533 283.819 631.532C283.821 631.529 283.824 631.525 283.828 631.519C283.835 631.508 283.847 631.491 283.863 631.468C283.894 631.422 283.94 631.355 284 631.268C284.121 631.095 284.296 630.845 284.517 630.541C284.957 629.931 285.574 629.105 286.28 628.236C286.986 627.366 287.775 626.461 288.56 625.692C289.355 624.914 290.107 624.312 290.737 624.006L290.455 623.425L290.173 622.844C289.351 623.242 288.479 623.962 287.656 624.769C286.823 625.585 286 626.53 285.276 627.421C284.552 628.314 283.92 629.16 283.469 629.783C283.244 630.095 283.063 630.352 282.939 630.531C282.877 630.62 282.828 630.69 282.796 630.738C282.779 630.763 282.767 630.781 282.758 630.794C282.754 630.8 282.75 630.805 282.748 630.808C282.747 630.81 282.746 630.811 282.745 630.812C282.745 630.813 282.745 630.813 282.745 630.813C282.745 630.813 282.745 630.814 282.745 630.814C282.744 630.814 282.744 630.814 283.28 631.175ZM290.455 623.425L290.737 624.006C292.037 623.376 293.975 623.354 295.693 623.531C296.532 623.618 297.284 623.748 297.827 623.857C298.097 623.912 298.315 623.96 298.463 623.995C298.538 624.013 298.595 624.027 298.632 624.036C298.651 624.041 298.666 624.045 298.675 624.047C298.679 624.048 298.682 624.049 298.684 624.049C298.685 624.05 298.686 624.05 298.686 624.05C298.687 624.05 298.687 624.05 298.687 624.05C298.687 624.05 298.687 624.05 298.687 624.05C298.687 624.05 298.687 624.05 298.851 623.425C299.015 622.8 299.015 622.8 299.015 622.8C299.015 622.8 299.014 622.8 299.014 622.8C299.014 622.8 299.014 622.8 299.013 622.799C299.012 622.799 299.011 622.799 299.009 622.798C299.006 622.798 299.001 622.796 298.995 622.795C298.984 622.792 298.967 622.788 298.945 622.782C298.902 622.771 298.839 622.756 298.759 622.737C298.598 622.699 298.367 622.648 298.081 622.59C297.51 622.475 296.716 622.338 295.826 622.246C294.083 622.065 291.824 622.043 290.173 622.844L290.455 623.425ZM298.851 623.425C299.099 622.828 299.099 622.828 299.098 622.828C299.098 622.828 299.098 622.828 299.098 622.828C299.097 622.827 299.096 622.827 299.094 622.826C299.091 622.825 299.087 622.823 299.081 622.821C299.068 622.816 299.05 622.808 299.025 622.797C298.976 622.777 298.902 622.746 298.805 622.705C298.612 622.622 298.325 622.5 297.956 622.34C297.217 622.019 296.147 621.547 294.823 620.941C292.174 619.73 288.511 617.987 284.458 615.86C276.334 611.596 266.701 605.82 260.484 599.715L260.031 600.176L259.578 600.637C265.939 606.882 275.715 612.731 283.857 617.004C287.936 619.145 291.621 620.898 294.285 622.117C295.618 622.726 296.696 623.202 297.441 623.525C297.814 623.687 298.104 623.811 298.301 623.894C298.399 623.936 298.474 623.968 298.525 623.989C298.55 624 298.57 624.008 298.583 624.013C298.589 624.016 298.594 624.018 298.598 624.02C298.599 624.02 298.601 624.021 298.601 624.021C298.602 624.021 298.602 624.021 298.602 624.022C298.603 624.022 298.603 624.022 298.851 623.425ZM260.031 600.176L259.55 600.607C266.383 608.226 272.179 615.954 276.268 621.779C278.312 624.691 279.929 627.126 281.033 628.832C281.586 629.685 282.01 630.356 282.296 630.813C282.439 631.041 282.547 631.216 282.62 631.334C282.656 631.392 282.683 631.437 282.701 631.466C282.71 631.481 282.717 631.492 282.722 631.499C282.724 631.503 282.726 631.506 282.727 631.508C282.727 631.509 282.728 631.509 282.728 631.51C282.728 631.51 282.728 631.51 282.728 631.51C282.728 631.51 282.728 631.51 283.28 631.175C283.833 630.839 283.833 630.839 283.833 630.839C283.833 630.839 283.832 630.839 283.832 630.838C283.832 630.838 283.831 630.837 283.831 630.836C283.83 630.834 283.828 630.831 283.825 630.827C283.82 630.819 283.813 630.807 283.804 630.792C283.785 630.761 283.757 630.716 283.72 630.656C283.646 630.535 283.536 630.358 283.392 630.127C283.102 629.665 282.674 628.988 282.118 628.13C281.006 626.412 279.381 623.963 277.326 621.036C273.218 615.184 267.39 607.412 260.512 599.744L260.031 600.176Z" fill="black"/>
<path d="M211.79 544.648C211.79 544.648 210.653 544.865 209.939 545.185C209.159 545.535 208.669 545.724 208.009 546.4C206.927 547.508 206.503 548.628 206.362 550.137C206.179 552.088 207.087 552.878 208.051 554.178C209.813 556.553 214.526 557.568 214.526 557.568C214.526 557.568 216.937 558.333 218.61 558.325C219.577 558.321 220.135 558.263 221.127 558.055C223.588 557.539 227.347 555.054 227.347 555.054C227.347 555.054 228.673 553.923 229.027 552.924C229.426 551.798 229.4 550.821 228.935 549.867C228.471 548.915 227.214 547.968 227.214 547.968C227.214 547.968 225.181 546.48 223.795 545.671C222.783 545.08 222.246 544.672 221.137 544.279C220.195 543.945 218.613 543.71 218.613 543.71C218.613 543.71 216.894 543.682 215.78 543.731C214.353 543.792 211.79 544.648 211.79 544.648Z" stroke="black" stroke-width="3.87725" stroke-linecap="round"/>
<path d="M152.123 463.416C152.123 463.416 150.22 463.779 149.023 464.315C147.717 464.901 146.897 465.218 145.792 466.349C143.98 468.205 143.27 470.081 143.033 472.608C142.727 475.875 144.248 477.198 145.863 479.375C148.813 483.353 156.705 485.053 156.705 485.053C156.705 485.053 160.743 486.332 163.545 486.32C165.164 486.313 166.099 486.215 167.76 485.867C171.881 485.004 178.176 480.842 178.176 480.842C178.176 480.842 180.396 478.947 180.989 477.275C181.657 475.39 181.614 473.753 180.835 472.155C180.057 470.561 177.953 468.976 177.953 468.976C177.953 468.976 174.549 466.484 172.227 465.128C170.532 464.138 169.634 463.456 167.777 462.797C166.198 462.238 163.55 461.844 163.55 461.844C163.55 461.844 160.671 461.798 158.806 461.879C156.415 461.983 152.123 463.416 152.123 463.416Z" stroke="black" stroke-width="3.87725" stroke-linecap="round"/>
<path d="M195.959 514.283C188.592 500.723 182.273 477.3 182.273 477.3C182.273 477.3 174.573 484.935 168.189 486.514C159.977 488.544 146.801 481.8 146.801 481.8C146.801 481.8 172.379 499.547 185.626 514.283C195.238 524.976 205.303 551.685 205.303 551.685C205.303 551.685 210.737 543.7 213.396 543.345C216.157 542.976 221.791 543.345 221.791 543.345C221.791 543.345 204.838 530.629 195.959 514.283Z" fill="black" stroke="black" stroke-width="1.29242"/>
<path d="M334.413 520.702C334.413 520.702 334.939 519.672 335.125 518.911C335.327 518.08 335.478 517.578 335.349 516.642C335.138 515.108 334.514 514.086 333.409 513.048C331.98 511.707 330.799 511.94 329.181 511.903C326.224 511.837 322.532 514.936 322.532 514.936C322.532 514.936 320.449 516.371 319.428 517.697C318.839 518.463 318.542 518.94 318.097 519.85C316.995 522.11 316.651 526.603 316.651 526.603C316.651 526.603 316.731 528.344 317.302 529.236C317.946 530.242 318.734 530.821 319.773 531.039C320.81 531.257 322.328 530.845 322.328 530.845C322.328 530.845 324.75 530.153 326.24 529.555C327.328 529.118 327.979 528.945 328.97 528.31C329.812 527.771 330.968 526.666 330.968 526.666C330.968 526.666 332.044 525.326 332.69 524.416C333.516 523.251 334.413 520.702 334.413 520.702Z" stroke="black" stroke-width="3.87725" stroke-linecap="round"/>
<path d="M358.37 423.314C358.37 423.314 359.251 421.589 359.561 420.315C359.9 418.923 360.153 418.081 359.938 416.515C359.584 413.945 358.538 412.234 356.688 410.497C354.296 408.25 352.318 408.64 349.609 408.579C344.657 408.469 338.473 413.658 338.473 413.658C338.473 413.658 334.985 416.061 333.276 418.281C332.288 419.564 331.791 420.362 331.047 421.888C329.201 425.671 328.625 433.196 328.625 433.196C328.625 433.196 328.759 436.112 329.715 437.606C330.794 439.29 332.113 440.26 333.853 440.625C335.589 440.989 338.132 440.3 338.132 440.3C338.132 440.3 342.188 439.141 344.683 438.139C346.505 437.408 347.595 437.118 349.254 436.055C350.665 435.151 352.601 433.302 352.601 433.302C352.601 433.302 354.403 431.056 355.484 429.534C356.868 427.583 358.37 423.314 358.37 423.314Z" stroke="black" stroke-width="3.87725" stroke-linecap="round"/>
<path d="M327.796 606.878C327.796 606.878 328.126 606.233 328.242 605.757C328.369 605.236 328.463 604.921 328.383 604.336C328.251 603.375 327.86 602.735 327.168 602.085C326.273 601.245 325.534 601.391 324.52 601.368C322.669 601.327 320.356 603.267 320.356 603.267C320.356 603.267 319.052 604.166 318.413 604.996C318.043 605.476 317.857 605.774 317.579 606.345C316.889 607.76 316.673 610.574 316.673 610.574C316.673 610.574 316.723 611.664 317.081 612.223C317.485 612.852 317.978 613.215 318.628 613.352C319.278 613.488 320.228 613.23 320.228 613.23C320.228 613.23 321.745 612.797 322.678 612.422C323.36 612.149 323.767 612.04 324.388 611.643C324.915 611.305 325.639 610.613 325.639 610.613C325.639 610.613 326.313 609.773 326.717 609.204C327.235 608.474 327.796 606.878 327.796 606.878Z" fill="#FFBBD0" stroke="black" stroke-width="3.87725" stroke-linecap="round"/>
<path d="M322.497 600.821L316.039 607.279C316.039 607.279 322.395 573.2 319.914 551.093C318.97 542.687 316.039 529.781 316.039 529.781L325.08 531.073L333.476 525.261C333.476 525.261 324.837 551.773 325.08 569.822C325.247 582.186 328.955 602.112 328.955 602.112L322.497 600.821Z" fill="black" stroke="black" stroke-width="1.29242"/>
<path d="M321.855 513.637L316.742 519.918C316.742 519.918 328.928 497.4 330.896 477.471C332.511 461.126 328.313 435.494 328.313 435.494L335.417 441.952L348.333 438.077L356.729 428.39C356.729 428.39 338.108 461.671 335.417 485.221C334.157 496.246 336.331 515.683 336.331 515.683L330.896 510.408L321.855 513.637Z" fill="black" stroke="black" stroke-width="1.29242"/>
<path d="M318.785 313.092C318.785 313.092 318.753 314.631 318.492 315.64C318.206 316.741 318.067 317.426 317.327 318.441C316.114 320.107 314.738 320.912 312.79 321.433C310.271 322.107 309.033 321.091 307.113 320.115C303.605 318.331 301.226 312.374 301.226 312.374C301.226 312.374 299.687 309.381 299.325 307.184C299.116 305.915 299.068 305.169 299.12 303.822C299.25 300.479 301.675 294.994 301.675 294.994C301.675 294.994 302.864 293.003 304.095 292.317C305.484 291.543 306.772 291.36 308.127 291.759C309.479 292.156 311 293.594 311 293.594C311 293.594 313.405 295.93 314.775 297.569C315.775 298.766 316.429 299.379 317.192 300.746C317.839 301.909 318.5 303.931 318.5 303.931C318.5 303.931 318.918 306.181 319.102 307.653C319.338 309.539 318.785 313.092 318.785 313.092Z" stroke="black" stroke-width="5.15931" stroke-linecap="round"/>
<path d="M285.573 442.347C285.573 442.347 285.52 444.924 285.082 446.614C284.604 448.458 284.37 449.604 283.132 451.305C281.1 454.095 278.797 455.444 275.534 456.316C271.316 457.444 269.242 455.742 266.027 454.108C260.152 451.121 256.168 441.145 256.168 441.145C256.168 441.145 253.591 436.132 252.985 432.454C252.635 430.328 252.554 429.079 252.642 426.823C252.858 421.225 256.92 412.04 256.92 412.04C256.92 412.04 258.912 408.706 260.973 407.557C263.298 406.261 265.455 405.954 267.725 406.621C269.989 407.287 272.536 409.695 272.536 409.695C272.536 409.695 276.563 413.607 278.858 416.352C280.533 418.355 281.628 419.382 282.905 421.673C283.99 423.619 285.095 427.006 285.095 427.006C285.095 427.006 285.795 430.773 286.104 433.238C286.499 436.398 285.573 442.347 285.573 442.347Z" stroke="black" stroke-width="5.15931" stroke-linecap="round"/>
<path d="M365.27 207.894C365.27 207.894 365.25 208.858 365.086 209.489C364.907 210.179 364.82 210.608 364.357 211.244C363.597 212.287 362.736 212.791 361.516 213.118C359.938 213.539 359.163 212.903 357.96 212.292C355.763 211.175 354.273 207.444 354.273 207.444C354.273 207.444 353.31 205.57 353.083 204.194C352.952 203.399 352.922 202.932 352.955 202.089C353.036 199.995 354.555 196.56 354.555 196.56C354.555 196.56 355.3 195.314 356.071 194.884C356.94 194.399 357.747 194.285 358.595 194.534C359.442 194.783 360.395 195.684 360.395 195.684C360.395 195.684 361.9 197.147 362.758 198.173C363.385 198.922 363.795 199.306 364.272 200.163C364.678 200.891 365.091 202.157 365.091 202.157C365.091 202.157 365.353 203.566 365.468 204.488C365.616 205.669 365.27 207.894 365.27 207.894Z" stroke="black" stroke-width="5.15931" stroke-linecap="round"/>
<path d="M355.244 211.661L351.738 200.025C351.738 200.025 337.741 243.98 320.918 268.336C314.521 277.598 302.961 290.883 302.961 290.883L314.374 295.06L320.572 308.147C320.572 308.147 327.118 270.637 338.763 249.63C346.74 235.239 363.629 214.212 363.629 214.212L355.244 211.661Z" fill="black" stroke="black" stroke-width="1.71977"/>
<path d="M299.613 313.47L297.628 304.705C297.628 304.705 297.686 336.957 287.45 361.561C279.056 381.74 257.303 408.739 257.303 408.739L270.395 406.05L283.099 418.722L286.845 435.363C286.845 435.363 285.961 384.624 297.628 355.321C303.09 341.601 317.923 320.323 317.923 320.323L308.18 322.946L299.613 313.47Z" fill="black" stroke="black" stroke-width="1.71977"/>
<path d="M184.111 381.014C182.041 396.562 190.92 425.388 190.92 425.388C190.92 425.388 173.687 416.094 165.817 418.905C155.694 422.52 147.962 426.578 147.962 426.578C147.962 426.578 161.794 406.606 169.915 386.365C175.807 371.677 166.846 343.089 166.846 343.089C166.846 343.089 177.36 354.473 180.5 353.061C183.761 351.594 199.798 341.282 199.798 341.282C199.798 341.282 186.607 362.271 184.111 381.014Z" fill="black" stroke="black" stroke-width="1.66594"/>
<path d="M184.106 447.517C184.106 447.517 186.584 446.768 188.079 445.898C189.711 444.949 190.745 444.419 191.995 442.796C194.046 440.134 194.615 437.61 194.416 434.316C194.159 430.057 191.85 428.577 189.24 426.009C184.472 421.316 173.544 420.293 173.544 420.293C173.544 420.293 167.869 419.241 164.116 419.672C161.946 419.922 160.712 420.186 158.557 420.881C153.209 422.605 145.618 428.906 145.618 428.906C145.618 428.906 142.974 431.161 142.575 433.922C142.178 436.67 142.457 438.557 143.828 440.502C145.195 442.442 148.34 444.175 148.34 444.175C148.34 444.175 153.414 446.884 156.803 448.289C159.278 449.314 160.621 450.061 163.246 450.635C165.477 451.122 169.107 451.238 169.107 451.238C169.107 451.238 172.977 450.871 175.461 450.49C178.645 450.002 184.106 447.517 184.106 447.517Z" stroke="black" stroke-width="4.99782" stroke-linecap="round"/>
<path d="M122.788 168.161C122.788 168.161 122.829 170.129 123.163 171.419C123.528 172.827 123.707 173.702 124.652 175.001C126.204 177.131 127.962 178.161 130.453 178.827C133.674 179.688 135.258 178.389 137.712 177.141C142.198 174.86 145.24 167.243 145.24 167.243C145.24 167.243 147.208 163.416 147.671 160.607C147.938 158.984 148 158.03 147.933 156.308C147.767 152.033 144.666 145.02 144.666 145.02C144.666 145.02 143.145 142.475 141.571 141.597C139.796 140.608 138.149 140.373 136.416 140.883C134.687 141.391 132.742 143.23 132.742 143.23C132.742 143.23 129.668 146.217 127.916 148.312C126.636 149.842 125.8 150.626 124.826 152.375C123.997 153.862 123.153 156.447 123.153 156.447C123.153 156.447 122.618 159.324 122.383 161.206C122.081 163.618 122.788 168.161 122.788 168.161Z" stroke="black" stroke-width="6.59701" stroke-linecap="round"/>
<path d="M165.253 333.435C165.253 333.435 165.32 336.73 165.88 338.89C166.492 341.249 166.79 342.715 168.374 344.889C170.972 348.457 173.917 350.181 178.089 351.296C183.483 352.739 186.134 350.563 190.245 348.473C197.757 344.654 202.852 331.898 202.852 331.898C202.852 331.898 206.147 325.488 206.922 320.785C207.37 318.066 207.472 316.47 207.361 313.585C207.083 306.427 201.891 294.682 201.891 294.682C201.891 294.682 199.343 290.42 196.707 288.95C193.734 287.293 190.977 286.901 188.074 287.754C185.179 288.605 181.922 291.684 181.922 291.684C181.922 291.684 176.773 296.687 173.839 300.196C171.697 302.758 170.297 304.071 168.664 307C167.277 309.489 165.863 313.819 165.863 313.819C165.863 313.819 164.968 318.636 164.574 321.788C164.068 325.828 165.253 333.435 165.253 333.435Z" stroke="black" stroke-width="6.59701" stroke-linecap="round"/>
<path d="M63.3495 33.6481C63.3495 33.6481 63.3747 34.8805 63.5841 35.6883C63.8128 36.5702 63.9244 37.1184 64.5166 37.9315C65.4882 39.2657 66.5895 39.9104 68.1494 40.3275C70.1665 40.8669 71.1581 40.0532 72.6954 39.2717C75.5046 37.8436 77.4097 33.0734 77.4097 33.0734C77.4097 33.0734 78.6417 30.6765 78.9316 28.9176C79.0991 27.9011 79.1375 27.3041 79.0958 26.2252C78.9921 23.5485 77.0502 19.1566 77.0502 19.1566C77.0502 19.1566 76.0977 17.5625 75.1119 17.013C74.0002 16.3933 72.9689 16.2467 71.8836 16.5656C70.801 16.8838 69.5829 18.0354 69.5829 18.0354C69.5829 18.0354 67.6576 19.9062 66.5604 21.2184C65.7592 22.1765 65.2355 22.6674 64.6252 23.7627C64.1065 24.6934 63.5778 26.3128 63.5778 26.3128C63.5778 26.3128 63.243 28.1142 63.0956 29.2927C62.9066 30.8035 63.3495 33.6481 63.3495 33.6481Z" stroke="black" stroke-width="6.59701" stroke-linecap="round"/>
<path d="M76.1741 38.4646L80.6581 23.5858C80.6581 23.5858 98.5554 79.7889 120.066 110.932C128.246 122.775 143.026 139.762 143.026 139.762L128.433 145.102L120.066 165.504C120.066 165.504 112.138 113.875 97.2488 87.0142C87.0484 68.6123 65.4532 41.7257 65.4532 41.7257L76.1741 38.4646Z" fill="black" stroke="black" stroke-width="2.199"/>
<path d="M147.301 168.644L150.098 155.669C150.098 155.669 149.765 198.676 162.853 230.136C173.586 255.938 200.508 290.986 200.508 290.986L184.661 287.022L168.417 303.225L163.627 324.504C163.627 324.504 164.757 259.626 149.839 222.156C142.855 204.614 123.891 177.376 123.891 177.376L136.346 180.761L147.301 168.644Z" fill="black" stroke="black" stroke-width="2.199"/>
<path d="M332.522 695.946C332.522 695.946 332.746 695.509 332.825 695.185C332.911 694.832 332.975 694.619 332.92 694.221C332.83 693.569 332.565 693.135 332.096 692.694C331.489 692.124 330.987 692.223 330.299 692.208C329.043 692.18 327.473 693.496 327.473 693.496C327.473 693.496 326.588 694.106 326.155 694.669C325.904 694.995 325.778 695.197 325.589 695.584C325.121 696.544 324.975 698.454 324.975 698.454C324.975 698.454 325.009 699.194 325.251 699.573C325.525 700 325.86 700.246 326.301 700.339C326.742 700.431 327.387 700.256 327.387 700.256C327.387 700.256 328.416 699.962 329.049 699.708C329.512 699.523 329.788 699.449 330.209 699.179C330.567 698.95 331.058 698.481 331.058 698.481C331.058 698.481 331.516 697.911 331.79 697.525C332.141 697.03 332.522 695.946 332.522 695.946Z" fill="#FFBBD0" stroke="black" stroke-width="3.84268" stroke-linecap="round"/>
</svg>
