<svg width="1296" height="1296" viewBox="0 0 1296 1296" fill="none" xmlns="http://www.w3.org/2000/svg">
<style>
  /*
    Total loop: 5s
    figure-entering dives: 0s → 2s (40%)
    figure-emerging appears: 1.5s → 3.5s (30% → 70%)
    Hold: 3.5s → 4.5s (70% → 90%)
    Fade out figure-emerging: 4.5s → 5s (90% → 100%)

    Transform origins are in SVG viewport coordinates (no transform-box: fill-box),
    so they pin to the portal centers regardless of figure position.
  */

  #figure-entering {
    /* Center of portal-sm flat edge */
    transform-origin: 387.462px 649.064px;
    animation: dive-into-portal 5s linear infinite;
  }

  #figure-emerging {
    /* Center of portal-lrg flat edge */
    transform-origin: 905.131px 480.6px;
    animation: emerge-from-portal 5s linear infinite;
  }

  @keyframes dive-into-portal {
    0% {
      transform: scale(1) rotate(0deg);
      opacity: 1;
      animation-timing-function: ease-in;
    }
    40% {
      transform: scale(0.2) rotate(180deg);
      opacity: 0;
    }
    100% {
      transform: scale(0.2) rotate(180deg);
      opacity: 0;
    }
  }

  @keyframes emerge-from-portal {
    0% {
      transform: scale(0);
      opacity: 0;
    }
    30% {
      transform: scale(0);
      opacity: 0;
      animation-timing-function: ease-out;
    }
    70% {
      transform: scale(1);
      opacity: 1;
    }
    90% {
      transform: scale(1);
      opacity: 1;
      animation-timing-function: ease-in;
    }
    100% {
      transform: scale(1);
      opacity: 0;
    }
  }
</style>
<g id="Parting of the Sensory - Final">
<g id="portal-sm">
<mask id="path-1-inside-1_1400_16" fill="white">
<path d="M203.862 649.064C203.862 697.758 223.206 744.457 257.638 778.889C292.069 813.321 338.769 832.664 387.462 832.664C436.156 832.664 482.856 813.321 517.287 778.889C551.719 744.457 571.062 697.758 571.062 649.064L387.462 649.064H203.862Z"/>
</mask>
<path d="M203.862 649.064C203.862 697.758 223.206 744.457 257.638 778.889C292.069 813.321 338.769 832.664 387.462 832.664C436.156 832.664 482.856 813.321 517.287 778.889C551.719 744.457 571.062 697.758 571.062 649.064L387.462 649.064H203.862Z" fill="#FFBBD0" stroke="black" stroke-width="7.2" mask="url(#path-1-inside-1_1400_16)"/>
</g>
<g id="portal-lrg">
<mask id="path-2-inside-2_1400_16" fill="white">
<path d="M1220 480.6C1220 393.874 1186.82 310.7 1127.77 249.376C1068.73 188.051 988.637 153.6 905.129 153.6C821.621 153.6 741.533 188.051 682.484 249.376C623.435 310.7 590.262 393.874 590.262 480.6L905.129 480.6H1220Z"/>
</mask>
<path d="M1220 480.6C1220 393.874 1186.82 310.7 1127.77 249.376C1068.73 188.051 988.637 153.6 905.129 153.6C821.621 153.6 741.533 188.051 682.484 249.376C623.435 310.7 590.262 393.874 590.262 480.6L905.129 480.6H1220Z" fill="#FFBBD0" stroke="black" stroke-width="7.2" mask="url(#path-2-inside-2_1400_16)"/>
</g>
<g id="figure-emerging">
<g id="torso-lrg">
<path id="Vector 12" d="M878.184 399.73C873.756 419.83 849.867 451.385 849.867 451.385C849.867 451.385 875.288 447.663 883.729 454.662C894.587 463.665 902.299 472.139 902.299 472.139C902.299 472.139 894.21 441.305 893.286 412.702C892.615 391.948 916.499 360.723 916.499 360.723C916.499 360.723 889.106 357.678 885.869 354.526C882.508 351.254 876.681 343.7 876.681 343.7C876.681 343.7 883.522 375.502 878.184 399.73Z" fill="#0E0C0C" stroke="black" stroke-width="2.18598"/>
<path id="Vector 1" d="M883.924 352.689C883.924 352.689 882.301 351.473 881.434 350.432C880.487 349.295 879.867 348.628 879.382 347.098C878.585 344.588 878.843 342.577 879.873 340.205C881.203 337.139 883.301 336.668 885.911 335.477C890.68 333.3 898.999 335.477 898.999 335.477C898.999 335.477 903.459 336.223 906.107 337.547C907.638 338.313 908.476 338.838 909.876 339.927C913.352 342.631 917.251 349.305 917.251 349.305C917.251 349.305 918.593 351.674 918.147 353.813C917.702 355.943 916.991 357.257 915.46 358.322C913.933 359.384 911.153 359.817 911.153 359.817C911.153 359.817 906.691 360.451 903.819 360.577C901.723 360.668 900.533 360.858 898.447 360.577C896.674 360.338 893.97 359.449 893.97 359.449C893.97 359.449 891.219 358.141 889.492 357.195C887.279 355.982 883.924 352.689 883.924 352.689Z" fill="white" stroke="black" stroke-width="6.55793" stroke-linecap="round"/>
<path id="Vector 1_2" d="M848.335 481.73C848.335 481.73 845.617 479.694 844.165 477.951C842.579 476.048 841.541 474.929 840.728 472.368C839.395 468.165 839.827 464.797 841.551 460.825C843.779 455.69 847.292 454.901 851.662 452.906C859.648 449.261 873.581 452.906 873.581 452.906C873.581 452.906 881.05 454.157 885.484 456.374C888.047 457.655 889.45 458.535 891.796 460.359C897.616 464.886 904.146 476.063 904.146 476.063C904.146 476.063 906.393 480.031 905.646 483.614C904.902 487.18 903.711 489.381 901.147 491.164C898.589 492.943 893.934 493.667 893.934 493.667C893.934 493.667 886.462 494.73 881.653 494.94C878.141 495.093 876.149 495.411 872.656 494.94C869.687 494.539 865.158 493.052 865.158 493.052C865.158 493.052 860.552 490.861 857.66 489.277C853.954 487.245 848.335 481.73 848.335 481.73Z" fill="white" stroke="black" stroke-width="6.55793" stroke-linecap="round"/>
</g>
<g id="right-shoulder-lrg">
<path id="Vector 1_3" d="M914.891 226.696C914.891 226.696 913.875 225.935 913.332 225.283C912.739 224.571 912.351 224.153 912.047 223.195C911.548 221.623 911.71 220.364 912.354 218.879C913.188 216.958 914.501 216.663 916.135 215.917C919.122 214.554 924.332 215.917 924.332 215.917C924.332 215.917 927.125 216.385 928.783 217.214C929.742 217.693 930.266 218.022 931.144 218.705C933.32 220.397 935.762 224.577 935.762 224.577C935.762 224.577 936.602 226.061 936.323 227.4C936.044 228.734 935.599 229.557 934.64 230.224C933.684 230.889 931.943 231.16 931.943 231.16C931.943 231.16 929.149 231.557 927.351 231.636C926.037 231.693 925.292 231.812 923.986 231.636C922.876 231.486 921.182 230.93 921.182 230.93C921.182 230.93 919.46 230.111 918.378 229.518C916.992 228.759 914.891 226.696 914.891 226.696Z" fill="white" stroke="black" stroke-width="6.55793" stroke-linecap="round"/>
<g id="Vector 13">
<path d="M922.076 231.829C917.161 229.445 909.941 218.721 909.941 218.721C909.941 218.721 893.806 245.297 870.617 271.152C891.89 250.263 936.276 231.829 936.276 231.829C936.276 231.829 927.065 234.249 922.076 231.829Z" fill="black"/>
<path d="M909.941 218.721L909.006 218.154L909.893 216.694L910.847 218.111L909.941 218.721ZM922.076 231.829L922.553 230.846V230.846L922.076 231.829ZM936.276 231.829L935.998 230.772L936.695 232.838L936.276 231.829ZM870.617 271.152L871.383 271.932C870.962 272.346 870.289 272.35 869.862 271.942C869.435 271.535 869.409 270.862 869.804 270.423L870.617 271.152ZM909.941 218.721C910.847 218.111 910.847 218.111 910.847 218.111C910.847 218.111 910.847 218.111 910.847 218.111C910.847 218.111 910.848 218.111 910.848 218.112C910.849 218.113 910.85 218.115 910.851 218.117C910.855 218.122 910.859 218.129 910.866 218.139C910.879 218.158 910.899 218.187 910.925 218.225C910.978 218.302 911.056 218.416 911.158 218.563C911.362 218.856 911.659 219.279 912.031 219.794C912.777 220.825 913.82 222.223 915.013 223.692C916.209 225.164 917.543 226.693 918.871 227.994C920.215 229.311 921.486 230.328 922.553 230.846L922.076 231.829L921.599 232.812C920.208 232.138 918.734 230.92 917.341 229.556C915.933 228.176 914.541 226.577 913.317 225.07C912.091 223.56 911.022 222.128 910.26 221.074C909.878 220.547 909.573 220.113 909.363 219.81C909.258 219.659 909.176 219.54 909.12 219.459C909.093 219.418 909.071 219.387 909.057 219.366C909.05 219.355 909.044 219.347 909.04 219.341C909.038 219.338 909.037 219.336 909.036 219.334C909.035 219.334 909.035 219.333 909.034 219.333C909.034 219.332 909.034 219.332 909.034 219.332C909.034 219.332 909.034 219.332 909.941 218.721ZM922.076 231.829L922.553 230.846C924.751 231.912 928.03 231.95 930.935 231.649C932.355 231.503 933.627 231.282 934.544 231.098C935.001 231.006 935.369 230.923 935.621 230.864C935.746 230.835 935.843 230.811 935.907 230.795C935.939 230.787 935.963 230.781 935.978 230.777C935.986 230.775 935.991 230.774 935.995 230.773C935.996 230.772 935.998 230.772 935.998 230.772C935.998 230.772 935.999 230.772 935.999 230.772C935.999 230.772 935.998 230.772 935.998 230.772C935.998 230.772 935.998 230.772 936.276 231.829C936.554 232.886 936.554 232.886 936.553 232.886C936.553 232.886 936.553 232.886 936.553 232.886C936.552 232.887 936.551 232.887 936.551 232.887C936.549 232.887 936.547 232.888 936.544 232.889C936.538 232.89 936.531 232.892 936.521 232.895C936.501 232.9 936.473 232.907 936.436 232.916C936.363 232.934 936.256 232.96 936.12 232.992C935.849 233.056 935.458 233.144 934.974 233.241C934.008 233.435 932.666 233.668 931.159 233.824C928.212 234.129 924.39 234.167 921.599 232.812L922.076 231.829ZM936.276 231.829C936.695 232.838 936.695 232.838 936.695 232.839C936.695 232.839 936.694 232.839 936.694 232.839C936.692 232.84 936.691 232.84 936.688 232.841C936.683 232.843 936.675 232.847 936.665 232.851C936.644 232.86 936.613 232.873 936.571 232.89C936.488 232.925 936.363 232.978 936.199 233.047C935.872 233.186 935.387 233.393 934.762 233.664C933.513 234.207 931.703 235.006 929.463 236.03C924.983 238.078 918.788 241.026 911.932 244.625C898.192 251.837 881.898 261.607 871.383 271.932L870.617 271.152L869.851 270.372C880.609 259.809 897.145 249.917 910.916 242.689C917.815 239.068 924.047 236.102 928.554 234.042C930.808 233.011 932.631 232.207 933.892 231.659C934.523 231.386 935.013 231.176 935.345 231.035C935.512 230.964 935.639 230.911 935.725 230.875C935.768 230.857 935.801 230.843 935.823 230.834C935.834 230.829 935.842 230.826 935.848 230.823C935.851 230.822 935.853 230.821 935.854 230.821C935.855 230.82 935.856 230.82 935.856 230.82C935.856 230.82 935.857 230.82 936.276 231.829ZM870.617 271.152L869.804 270.423C881.36 257.537 891.164 244.466 898.08 234.613C901.537 229.688 904.271 225.569 906.14 222.684C907.074 221.241 907.792 220.106 908.276 219.334C908.517 218.947 908.701 218.651 908.823 218.453C908.884 218.353 908.931 218.278 908.961 218.228C908.976 218.203 908.988 218.184 908.995 218.172C908.999 218.166 909.002 218.161 909.004 218.158C909.005 218.157 909.005 218.156 909.006 218.155C909.006 218.154 909.006 218.154 909.006 218.154C909.006 218.154 909.006 218.154 909.941 218.721C910.875 219.288 910.875 219.289 910.875 219.289C910.874 219.289 910.874 219.29 910.874 219.29C910.873 219.291 910.872 219.292 910.871 219.294C910.869 219.298 910.866 219.303 910.862 219.309C910.854 219.323 910.842 219.342 910.826 219.368C910.794 219.421 910.747 219.498 910.684 219.599C910.559 219.802 910.373 220.103 910.128 220.494C909.639 221.275 908.915 222.419 907.975 223.872C906.093 226.777 903.344 230.919 899.869 235.869C892.921 245.768 883.063 258.913 871.431 271.882L870.617 271.152Z" fill="black"/>
</g>
</g>
<path id="head-lrg" d="M994.012 108.366C994.012 108.366 994.393 109.112 994.527 109.664C994.674 110.266 994.784 110.63 994.69 111.308C994.537 112.42 994.085 113.161 993.284 113.913C992.249 114.885 991.393 114.716 990.22 114.743C988.077 114.79 985.401 112.545 985.401 112.545C985.401 112.545 983.891 111.505 983.152 110.544C982.724 109.989 982.509 109.643 982.187 108.983C981.388 107.346 981.139 104.089 981.139 104.089C981.139 104.089 981.197 102.827 981.611 102.181C982.078 101.452 982.649 101.032 983.402 100.874C984.153 100.717 985.253 101.015 985.253 101.015C985.253 101.015 987.009 101.517 988.089 101.95C988.877 102.266 989.349 102.392 990.067 102.852C990.677 103.243 991.515 104.043 991.515 104.043C991.515 104.043 992.295 105.015 992.763 105.674C993.362 106.519 994.012 108.366 994.012 108.366Z" fill="white" stroke="black" stroke-width="6.55793" stroke-linecap="round"/>
<g id="right-arm-lrg">
<path id="Vector 2" d="M787.073 365.073C787.073 365.073 785.151 364.706 783.942 364.164C782.623 363.573 781.794 363.253 780.679 362.11C778.848 360.236 778.131 358.341 777.892 355.789C777.583 352.489 779.119 351.153 780.75 348.954C783.73 344.937 791.701 343.22 791.701 343.22C791.701 343.22 795.779 341.927 798.609 341.94C800.244 341.947 801.189 342.045 802.866 342.397C807.028 343.269 813.387 347.473 813.387 347.473C813.387 347.473 815.629 349.386 816.228 351.075C816.903 352.979 816.859 354.632 816.072 356.246C815.287 357.856 813.161 359.457 813.161 359.457C813.161 359.457 809.723 361.974 807.378 363.344C805.666 364.343 804.759 365.033 802.883 365.698C801.289 366.263 798.614 366.661 798.614 366.661C798.614 366.661 795.706 366.707 793.822 366.625C791.408 366.52 787.073 365.073 787.073 365.073Z" fill="white" stroke="black" stroke-width="6.55793" stroke-linecap="round"/>
<path id="Vector 2_2" d="M686.156 502.467C686.156 502.467 682.937 501.854 680.913 500.946C678.703 499.955 677.316 499.419 675.448 497.506C672.382 494.367 671.181 491.194 670.781 486.92C670.263 481.394 672.836 479.157 675.567 475.475C680.557 468.746 693.906 465.871 693.906 465.871C693.906 465.871 700.735 463.706 705.474 463.728C708.212 463.74 709.794 463.905 712.603 464.493C719.573 465.953 730.221 472.993 730.221 472.993C730.221 472.993 733.976 476.198 734.979 479.025C736.109 482.214 736.036 484.983 734.718 487.685C733.403 490.382 729.844 493.063 729.844 493.063C729.844 493.063 724.086 497.278 720.159 499.571C717.292 501.245 715.773 502.4 712.631 503.513C709.962 504.459 705.483 505.126 705.483 505.126C705.483 505.126 700.613 505.203 697.458 505.067C693.415 504.891 686.156 502.467 686.156 502.467Z" fill="white" stroke="black" stroke-width="6.55793" stroke-linecap="round"/>
<path id="Vector 11" d="M760.293 416.431C747.834 439.366 737.145 478.984 737.145 478.984C737.145 478.984 724.122 466.071 713.324 463.4C699.434 459.966 677.148 471.373 677.148 471.373C677.148 471.373 720.41 441.356 742.816 416.431C759.074 398.346 776.099 353.17 776.099 353.17C776.099 353.17 785.288 366.676 789.786 367.277C794.456 367.9 803.986 367.277 803.986 367.277C803.986 367.277 775.312 388.784 760.293 416.431Z" fill="#0E0C0C" stroke="black" stroke-width="2.18598"/>
</g>
<g id="left-arm-lrg">
<path id="Vector 3" d="M996.728 405.575C996.728 405.575 997.618 407.317 997.931 408.604C998.274 410.009 998.529 410.86 998.311 412.442C997.954 415.037 996.898 416.766 995.029 418.52C992.613 420.789 990.616 420.396 987.879 420.457C982.878 420.569 976.632 415.328 976.632 415.328C976.632 415.328 973.109 412.9 971.383 410.658C970.385 409.362 969.883 408.556 969.132 407.016C967.267 403.194 966.685 395.594 966.685 395.594C966.685 395.594 966.821 392.649 967.787 391.14C968.876 389.439 970.209 388.46 971.966 388.091C973.719 387.723 976.287 388.419 976.287 388.419C976.287 388.419 980.385 389.59 982.904 390.601C984.744 391.34 985.845 391.633 987.521 392.707C988.945 393.619 990.901 395.487 990.901 395.487C990.901 395.487 992.722 397.755 993.813 399.293C995.211 401.264 996.728 405.575 996.728 405.575Z" fill="white" stroke="black" stroke-width="6.55793" stroke-linecap="round"/>
<path id="Vector 3_2" d="M1037.25 570.294C1037.25 570.294 1038.74 573.212 1039.26 575.368C1039.83 577.72 1040.26 579.145 1039.9 581.794C1039.3 586.14 1037.53 589.035 1034.4 591.973C1030.36 595.773 1027.01 595.114 1022.43 595.216C1014.05 595.404 1003.59 586.627 1003.59 586.627C1003.59 586.627 997.693 582.562 994.802 578.807C993.132 576.637 992.291 575.287 991.032 572.707C987.91 566.308 986.936 553.58 986.936 553.58C986.936 553.58 987.162 548.648 988.78 546.122C990.605 543.273 992.836 541.632 995.779 541.015C998.714 540.399 1003.02 541.564 1003.02 541.564C1003.02 541.564 1009.88 543.525 1014.1 545.219C1017.18 546.456 1019.02 546.947 1021.83 548.745C1024.21 550.273 1027.49 553.401 1027.49 553.401C1027.49 553.401 1030.54 557.199 1032.36 559.774C1034.71 563.075 1037.25 570.294 1037.25 570.294Z" fill="white" stroke="black" stroke-width="6.55793" stroke-linecap="round"/>
<path id="Vector 3_3" d="M985.536 259.816C985.536 259.816 986.094 260.907 986.29 261.713C986.504 262.593 986.664 263.126 986.528 264.116C986.304 265.742 985.643 266.824 984.473 267.923C982.96 269.344 981.709 269.097 979.995 269.136C976.863 269.206 972.951 265.924 972.951 265.924C972.951 265.924 970.745 264.404 969.664 262.999C969.04 262.188 968.725 261.683 968.255 260.718C967.087 258.325 966.723 253.566 966.723 253.566C966.723 253.566 966.807 251.722 967.412 250.777C968.095 249.711 968.929 249.098 970.03 248.867C971.127 248.637 972.736 249.072 972.736 249.072C972.736 249.072 975.302 249.806 976.88 250.439C978.032 250.902 978.721 251.085 979.771 251.758C980.663 252.329 981.887 253.499 981.887 253.499C981.887 253.499 983.027 254.919 983.711 255.882C984.587 257.116 985.536 259.816 985.536 259.816Z" fill="white" stroke="black" stroke-width="6.55793" stroke-linecap="round"/>
<path id="Vector 14" d="M976.575 270.06L965.652 259.137C965.652 259.137 976.403 316.778 972.206 354.169C970.61 368.387 965.652 390.215 965.652 390.215L980.945 388.03L995.145 397.861C995.145 397.861 980.534 353.018 980.945 322.492C981.226 301.578 987.499 267.876 987.499 267.876L976.575 270.06Z" fill="black" stroke="black" stroke-width="2.18598"/>
<path id="Vector 15" d="M975.484 417.523L966.836 406.898C966.836 406.898 987.446 444.985 990.776 478.693C993.507 506.338 986.407 549.694 986.407 549.694L998.422 538.77L1020.27 545.324L1034.47 561.709C1034.47 561.709 1002.97 505.417 998.422 465.585C996.291 446.937 999.969 414.062 999.969 414.062L990.776 422.985L975.484 417.523Z" fill="#0E0C0C" stroke="black" stroke-width="2.18598"/>
</g>
<g id="left-leg-lrg">
<path id="Vector 3_4" d="M969.181 756.724C969.181 756.724 969.128 754.12 968.686 752.414C968.203 750.552 967.967 749.394 966.716 747.676C964.664 744.858 962.337 743.496 959.042 742.615C954.782 741.476 952.687 743.194 949.44 744.845C943.506 747.862 939.482 757.938 939.482 757.938C939.482 757.938 936.88 763.001 936.268 766.716C935.914 768.863 935.832 770.124 935.921 772.403C936.14 778.057 940.242 787.334 940.242 787.334C940.242 787.334 942.253 790.701 944.336 791.862C946.684 793.171 948.862 793.48 951.155 792.807C953.442 792.135 956.015 789.702 956.015 789.702C956.015 789.702 960.081 785.75 962.399 782.979C964.091 780.955 965.197 779.918 966.487 777.605C967.582 775.638 968.699 772.218 968.699 772.218C968.699 772.218 969.406 768.413 969.718 765.923C970.117 762.732 969.181 756.724 969.181 756.724Z" fill="white" stroke="black" stroke-width="8.72639" stroke-linecap="round"/>
<path id="Vector 3_5" d="M913.012 538.103C913.012 538.103 912.923 533.743 912.182 530.886C911.373 527.767 910.979 525.827 908.884 522.951C905.447 518.232 901.551 515.951 896.033 514.476C888.899 512.568 885.391 515.446 879.953 518.21C870.016 523.262 863.277 540.136 863.277 540.136C863.277 540.136 858.919 548.614 857.894 554.836C857.301 558.432 857.165 560.543 857.313 564.36C857.68 573.828 864.549 589.363 864.549 589.363C864.549 589.363 867.918 595.002 871.405 596.946C875.338 599.138 878.986 599.657 882.825 598.529C886.654 597.403 890.963 593.33 890.963 593.33C890.963 593.33 897.773 586.712 901.655 582.07C904.488 578.681 906.341 576.945 908.5 573.071C910.334 569.778 912.205 564.05 912.205 564.05C912.205 564.05 913.389 557.678 913.911 553.509C914.579 548.165 913.012 538.103 913.012 538.103Z" fill="white" stroke="black" stroke-width="8.72639" stroke-linecap="round"/>
<path id="Vector 3_6" d="M1047.8 934.655C1047.8 934.655 1047.77 933.025 1047.49 931.956C1047.19 930.79 1047.04 930.064 1046.26 928.989C1044.97 927.224 1043.52 926.371 1041.45 925.819C1038.79 925.106 1037.47 926.182 1035.44 927.216C1031.72 929.105 1029.2 935.415 1029.2 935.415C1029.2 935.415 1027.57 938.586 1027.19 940.912C1026.97 942.257 1026.92 943.047 1026.97 944.474C1027.11 948.014 1029.68 953.824 1029.68 953.824C1029.68 953.824 1030.94 955.933 1032.24 956.659C1033.71 957.479 1035.08 957.673 1036.51 957.251C1037.95 956.83 1039.56 955.307 1039.56 955.307C1039.56 955.307 1042.1 952.832 1043.56 951.097C1044.62 949.829 1045.31 949.18 1046.12 947.731C1046.8 946.5 1047.5 944.358 1047.5 944.358C1047.5 944.358 1047.94 941.975 1048.14 940.416C1048.39 938.418 1047.8 934.655 1047.8 934.655Z" fill="white" stroke="black" stroke-width="8.72639" stroke-linecap="round"/>
<path id="Vector 14_2" d="M1030.85 928.283L1024.91 947.964C1024.91 947.964 1001.24 873.62 972.786 832.424C961.966 816.759 942.415 794.288 942.415 794.288L961.718 787.225L972.201 765.09C972.201 765.09 983.273 828.532 1002.97 864.063C1016.46 888.404 1045.03 923.969 1045.03 923.969L1030.85 928.283Z" fill="#0E0C0C" stroke="black" stroke-width="2.9088"/>
<path id="Vector 15_2" d="M936.756 756.086L933.399 770.911C933.399 770.911 933.496 716.36 916.185 674.746C901.987 640.615 865.194 594.95 865.194 594.95L887.337 599.498L908.825 578.065L915.161 549.918C915.161 549.918 913.666 635.736 933.399 685.301C942.637 708.505 967.726 744.494 967.726 744.494L951.247 740.058L936.756 756.086Z" fill="#0E0C0C" stroke="black" stroke-width="2.9088"/>
</g>
<g id="right-leg-lrg">
<path id="Vector 12_2" d="M790.196 641.842C786.695 615.543 801.712 566.788 801.712 566.788C801.712 566.788 772.564 582.507 759.253 577.753C742.131 571.638 729.053 564.775 729.053 564.775C729.053 564.775 752.449 598.555 766.184 632.791C776.15 657.633 760.994 705.986 760.994 705.986C760.994 705.986 795.514 697.593 800.825 699.983C806.34 702.464 816.729 709.044 816.729 709.044C816.729 709.044 794.417 673.542 790.196 641.842Z" fill="#0E0C0C" stroke="black" stroke-width="2.81775"/>
<path id="Vector 1_4" d="M790.183 529.359C790.183 529.359 794.373 530.627 796.902 532.098C799.662 533.703 801.412 534.6 803.526 537.344C806.995 541.847 807.957 546.116 807.621 551.687C807.187 558.891 803.28 561.395 798.867 565.739C790.802 573.676 772.318 575.406 772.318 575.406C772.318 575.406 762.72 577.185 756.371 576.455C752.702 576.034 750.615 575.587 746.969 574.412C737.923 571.496 725.084 560.838 725.084 560.838C725.084 560.838 720.613 557.023 719.938 552.354C719.266 547.707 719.737 544.515 722.056 541.225C724.37 537.943 729.689 535.012 729.689 535.012C729.689 535.012 738.27 530.43 744.003 528.054C748.188 526.32 750.461 525.056 754.9 524.086C758.673 523.262 764.814 523.066 764.814 523.066C764.814 523.066 771.359 523.688 775.561 524.332C780.946 525.157 790.183 529.359 790.183 529.359Z" fill="white" stroke="black" stroke-width="8.45325" stroke-linecap="round"/>
<path id="Vector 3_7" d="M686.471 1001.86C686.471 1001.86 686.54 998.531 687.105 996.349C687.723 993.967 688.024 992.487 689.624 990.29C692.248 986.687 695.222 984.946 699.436 983.819C704.883 982.362 707.562 984.56 711.714 986.671C719.301 990.528 724.446 1003.41 724.446 1003.41C724.446 1003.41 727.774 1009.89 728.557 1014.64C729.009 1017.38 729.113 1018.99 729 1021.91C728.72 1029.14 723.475 1041 723.475 1041C723.475 1041 720.903 1045.3 718.24 1046.79C715.238 1048.46 712.452 1048.86 709.521 1048C706.597 1047.14 703.307 1044.03 703.307 1044.03C703.307 1044.03 698.107 1038.97 695.144 1035.43C692.98 1032.84 691.565 1031.52 689.917 1028.56C688.516 1026.04 687.088 1021.67 687.088 1021.67C687.088 1021.67 686.184 1016.81 685.786 1013.62C685.275 1009.54 686.471 1001.86 686.471 1001.86Z" fill="white" stroke="black" stroke-width="11.1581" stroke-linecap="round"/>
<path id="Vector 3_8" d="M758.297 722.317C758.297 722.317 758.411 716.743 759.358 713.089C760.392 709.101 760.897 706.621 763.576 702.943C767.97 696.909 772.952 693.993 780.007 692.106C789.13 689.667 793.615 693.347 800.568 696.882C813.274 703.341 821.891 724.916 821.891 724.916C821.891 724.916 827.464 735.758 828.775 743.713C829.532 748.311 829.706 751.011 829.517 755.891C829.048 767.998 820.265 787.862 820.265 787.862C820.265 787.862 815.957 795.072 811.498 797.558C806.47 800.361 801.805 801.024 796.896 799.581C792 798.142 786.49 792.934 786.49 792.934C786.49 792.934 777.782 784.472 772.82 778.537C769.196 774.203 766.827 771.983 764.067 767.029C761.721 762.819 759.329 755.495 759.329 755.495C759.329 755.495 757.815 747.347 757.148 742.016C756.293 735.183 758.297 722.317 758.297 722.317Z" fill="white" stroke="black" stroke-width="11.1581" stroke-linecap="round"/>
<path id="Vector 3_9" d="M585.941 1229.37C585.941 1229.37 585.984 1227.29 586.338 1225.92C586.725 1224.43 586.914 1223.5 587.916 1222.13C589.559 1219.87 591.422 1218.78 594.06 1218.07C597.472 1217.16 599.149 1218.54 601.749 1219.86C606.5 1222.28 609.723 1230.34 609.723 1230.34C609.723 1230.34 611.807 1234.4 612.297 1237.37C612.58 1239.09 612.645 1240.1 612.575 1241.93C612.399 1246.45 609.115 1253.88 609.115 1253.88C609.115 1253.88 607.504 1256.58 605.836 1257.51C603.956 1258.56 602.212 1258.8 600.376 1258.27C598.545 1257.73 596.485 1255.78 596.485 1255.78C596.485 1255.78 593.228 1252.62 591.372 1250.4C590.017 1248.78 589.132 1247.95 588.099 1246.09C587.222 1244.52 586.328 1241.78 586.328 1241.78C586.328 1241.78 585.761 1238.73 585.512 1236.74C585.192 1234.18 585.941 1229.37 585.941 1229.37Z" fill="white" stroke="black" stroke-width="11.1581" stroke-linecap="round"/>
<path id="Vector 14_3" d="M607.623 1221.22L615.207 1246.39C615.207 1246.39 645.479 1151.33 681.862 1098.65C695.697 1078.62 720.696 1049.89 720.696 1049.89L696.013 1040.86L681.862 1006.35C681.862 1006.35 668.452 1093.68 643.269 1139.11C626.016 1170.23 589.49 1215.71 589.49 1215.71L607.623 1221.22Z" fill="#0E0C0C" stroke="black" stroke-width="3.71936"/>
<path id="Vector 15_3" d="M727.934 1001.04L732.664 1022.99C732.664 1022.99 732.102 950.247 754.238 897.035C772.392 853.394 817.927 794.114 817.927 794.114L791.124 800.82L763.649 773.413L755.547 737.423C755.547 737.423 757.458 847.156 732.226 910.532C720.414 940.202 688.338 986.273 688.338 986.273L709.405 980.548L727.934 1001.04Z" fill="#0E0C0C" stroke="black" stroke-width="3.71936"/>
</g>
</g>
<g id="figure-entering">
<g id="torso">
<path id="Vector 12_3" d="M323.288 588.615C320.835 577.482 307.603 560.004 307.603 560.004C307.603 560.004 321.683 562.065 326.359 558.189C332.373 553.202 336.644 548.508 336.644 548.508C336.644 548.508 332.164 565.587 331.652 581.43C331.281 592.926 344.51 610.221 344.51 610.221C344.51 610.221 329.337 611.908 327.544 613.653C325.682 615.466 322.455 619.65 322.455 619.65C322.455 619.65 326.244 602.035 323.288 588.615Z" fill="black" stroke="black" stroke-width="1.21079"/>
<path id="Vector 1_5" d="M326.466 614.672C326.466 614.672 325.567 615.345 325.087 615.922C324.562 616.551 324.219 616.921 323.95 617.768C323.509 619.159 323.652 620.272 324.222 621.586C324.959 623.285 326.121 623.546 327.567 624.205C330.208 625.411 334.816 624.205 334.816 624.205C334.816 624.205 337.287 623.792 338.754 623.058C339.601 622.635 340.065 622.344 340.841 621.74C342.766 620.243 344.926 616.546 344.926 616.546C344.926 616.546 345.669 615.234 345.422 614.049C345.176 612.869 344.782 612.141 343.934 611.551C343.088 610.963 341.548 610.724 341.548 610.724C341.548 610.724 339.077 610.372 337.486 610.303C336.325 610.252 335.666 610.147 334.51 610.303C333.528 610.435 332.031 610.927 332.031 610.927C332.031 610.927 330.507 611.652 329.551 612.176C328.325 612.848 326.466 614.672 326.466 614.672Z" stroke="black" stroke-width="3.63238" stroke-linecap="round"/>
<path id="Vector 1_6" d="M306.757 543.196C306.757 543.196 305.251 544.324 304.446 545.29C303.568 546.344 302.993 546.963 302.543 548.382C301.805 550.71 302.044 552.575 302.999 554.775C304.233 557.62 306.178 558.057 308.599 559.162C313.023 561.181 320.74 559.162 320.74 559.162C320.74 559.162 324.877 558.469 327.333 557.241C328.753 556.531 329.53 556.044 330.829 555.033C334.053 552.526 337.67 546.335 337.67 546.335C337.67 546.335 338.914 544.137 338.5 542.153C338.088 540.177 337.429 538.958 336.008 537.971C334.592 536.985 332.013 536.584 332.013 536.584C332.013 536.584 327.875 535.996 325.211 535.879C323.266 535.795 322.162 535.618 320.227 535.879C318.583 536.101 316.074 536.925 316.074 536.925C316.074 536.925 313.523 538.138 311.921 539.016C309.868 540.141 306.757 543.196 306.757 543.196Z" stroke="black" stroke-width="3.63238" stroke-linecap="round"/>
</g>
<g id="left-shoulder-sm">
<path id="Vector 1_7" d="M343.718 684.457C343.718 684.457 343.155 684.879 342.854 685.24C342.526 685.634 342.311 685.866 342.143 686.397C341.866 687.267 341.956 687.965 342.313 688.787C342.775 689.851 343.502 690.014 344.407 690.428C346.062 691.183 348.947 690.428 348.947 690.428C348.947 690.428 350.494 690.169 351.413 689.709C351.944 689.444 352.234 689.262 352.72 688.884C353.926 687.946 355.278 685.631 355.278 685.631C355.278 685.631 355.744 684.809 355.589 684.067C355.435 683.328 355.188 682.873 354.657 682.503C354.127 682.135 353.163 681.985 353.163 681.985C353.163 681.985 351.615 681.765 350.619 681.721C349.892 681.69 349.479 681.624 348.756 681.721C348.141 681.804 347.203 682.112 347.203 682.112C347.203 682.112 346.249 682.566 345.65 682.894C344.882 683.315 343.718 684.457 343.718 684.457Z" fill="#FFBBD0" stroke="black" stroke-width="3.63238" stroke-linecap="round"/>
<g id="Vector 13_2">
<path d="M347.702 681.613C344.979 682.934 340.98 688.873 340.98 688.873C340.98 688.873 332.043 674.153 319.199 659.832C330.982 671.402 355.567 681.613 355.567 681.613C355.567 681.613 350.465 680.272 347.702 681.613Z" fill="black"/>
<path d="M340.98 688.873L340.463 689.187L340.954 689.996L341.482 689.211L340.98 688.873ZM347.702 681.613L347.966 682.158V682.158L347.702 681.613ZM355.567 681.613L355.413 682.198L355.799 681.054L355.567 681.613ZM319.199 659.832L319.623 659.4C319.39 659.171 319.017 659.169 318.781 659.394C318.545 659.62 318.53 659.993 318.749 660.236L319.199 659.832ZM340.98 688.873C341.482 689.211 341.482 689.211 341.482 689.211C341.482 689.211 341.482 689.211 341.482 689.211C341.482 689.211 341.483 689.211 341.483 689.211C341.483 689.21 341.484 689.209 341.485 689.208C341.486 689.205 341.489 689.201 341.493 689.196C341.5 689.185 341.511 689.169 341.525 689.148C341.555 689.105 341.598 689.042 341.654 688.961C341.767 688.799 341.932 688.565 342.138 688.279C342.551 687.708 343.129 686.934 343.79 686.12C344.452 685.305 345.191 684.458 345.927 683.737C346.671 683.008 347.375 682.444 347.966 682.158L347.702 681.613L347.438 681.068C346.667 681.442 345.851 682.116 345.079 682.872C344.299 683.636 343.528 684.522 342.85 685.357C342.171 686.193 341.579 686.986 341.157 687.57C340.946 687.862 340.777 688.102 340.66 688.27C340.602 688.354 340.557 688.42 340.526 688.465C340.51 688.487 340.499 688.504 340.491 688.516C340.487 688.522 340.484 688.527 340.481 688.53C340.48 688.532 340.48 688.533 340.479 688.534C340.479 688.534 340.478 688.534 340.478 688.535C340.478 688.535 340.478 688.535 340.478 688.535C340.478 688.535 340.478 688.535 340.98 688.873ZM347.702 681.613L347.966 682.158C349.183 681.567 351 681.546 352.609 681.712C353.395 681.794 354.1 681.916 354.608 682.018C354.861 682.069 355.065 682.115 355.204 682.147C355.274 682.164 355.327 682.177 355.363 682.186C355.38 682.19 355.394 682.193 355.402 682.196C355.406 682.197 355.409 682.197 355.411 682.198C355.412 682.198 355.413 682.198 355.413 682.198C355.413 682.198 355.413 682.198 355.413 682.198C355.413 682.198 355.413 682.198 355.413 682.198C355.413 682.198 355.413 682.198 355.567 681.613C355.721 681.027 355.721 681.027 355.721 681.027C355.721 681.027 355.72 681.027 355.72 681.027C355.72 681.027 355.72 681.027 355.719 681.027C355.718 681.027 355.717 681.026 355.715 681.026C355.712 681.025 355.708 681.024 355.703 681.023C355.692 681.02 355.676 681.016 355.656 681.011C355.615 681.001 355.556 680.986 355.481 680.969C355.33 680.933 355.114 680.885 354.846 680.831C354.311 680.723 353.567 680.594 352.733 680.508C351.1 680.339 348.984 680.318 347.438 681.068L347.702 681.613ZM355.567 681.613C355.799 681.054 355.799 681.054 355.799 681.054C355.799 681.054 355.799 681.054 355.798 681.053C355.798 681.053 355.797 681.053 355.795 681.052C355.793 681.051 355.788 681.049 355.782 681.047C355.771 681.042 355.754 681.035 355.73 681.025C355.684 681.006 355.615 680.977 355.525 680.938C355.343 680.861 355.075 680.746 354.729 680.596C354.037 680.296 353.034 679.853 351.793 679.286C349.312 678.152 345.881 676.519 342.083 674.525C334.472 670.531 325.448 665.119 319.623 659.4L319.199 659.832L318.775 660.264C324.734 666.115 333.893 671.594 341.52 675.597C345.342 677.603 348.793 679.246 351.29 680.387C352.538 680.958 353.548 681.404 354.247 681.707C354.596 681.859 354.867 681.975 355.052 682.053C355.144 682.092 355.214 682.122 355.262 682.142C355.286 682.151 355.304 682.159 355.316 682.164C355.322 682.167 355.327 682.169 355.33 682.17C355.331 682.171 355.333 682.171 355.334 682.171C355.334 682.172 355.334 682.172 355.334 682.172C355.335 682.172 355.335 682.172 355.567 681.613ZM319.199 659.832L318.749 660.236C325.15 667.373 330.58 674.613 334.411 680.071C336.326 682.799 337.84 685.08 338.875 686.678C339.392 687.478 339.79 688.106 340.058 688.534C340.192 688.748 340.293 688.912 340.361 689.022C340.395 689.077 340.421 689.119 340.438 689.146C340.446 689.16 340.452 689.171 340.457 689.178C340.459 689.181 340.46 689.183 340.461 689.185C340.462 689.186 340.462 689.187 340.462 689.187C340.462 689.187 340.463 689.187 340.463 689.187C340.463 689.187 340.463 689.187 340.98 688.873C341.498 688.559 341.498 688.559 341.497 688.559C341.497 688.559 341.497 688.558 341.497 688.558C341.497 688.558 341.496 688.557 341.496 688.556C341.495 688.554 341.493 688.551 341.491 688.547C341.486 688.54 341.479 688.529 341.471 688.515C341.453 688.486 341.427 688.443 341.392 688.387C341.323 688.274 341.22 688.108 341.084 687.892C340.813 687.459 340.412 686.825 339.891 686.02C338.849 684.411 337.326 682.117 335.402 679.375C331.553 673.892 326.093 666.612 319.65 659.428L319.199 659.832Z" fill="black"/>
</g>
</g>
<g id="left-arm-sm">
<path id="Vector 2_3" d="M274.007 607.811C274.007 607.811 272.942 608.014 272.273 608.314C271.542 608.642 271.083 608.819 270.465 609.452C269.451 610.49 269.054 611.54 268.922 612.953C268.75 614.781 269.601 615.521 270.505 616.739C272.155 618.965 276.57 619.915 276.57 619.915C276.57 619.915 278.829 620.631 280.396 620.624C281.302 620.62 281.825 620.566 282.755 620.371C285.06 619.888 288.582 617.56 288.582 617.56C288.582 617.56 289.824 616.5 290.155 615.565C290.529 614.51 290.505 613.594 290.069 612.7C289.634 611.809 288.457 610.922 288.457 610.922C288.457 610.922 286.552 609.528 285.254 608.769C284.305 608.215 283.803 607.833 282.764 607.465C281.881 607.152 280.399 606.932 280.399 606.932C280.399 606.932 278.789 606.906 277.745 606.951C276.408 607.009 274.007 607.811 274.007 607.811Z" stroke="black" stroke-width="3.63238" stroke-linecap="round"/>
<path id="Vector 2_4" d="M218.11 531.708C218.11 531.708 216.327 532.047 215.206 532.55C213.982 533.099 213.214 533.396 212.179 534.456C210.481 536.194 209.816 537.952 209.594 540.319C209.307 543.38 210.732 544.619 212.245 546.659C215.009 550.385 222.403 551.978 222.403 551.978C222.403 551.978 226.185 553.177 228.81 553.165C230.327 553.158 231.203 553.067 232.759 552.741C236.619 551.932 242.517 548.033 242.517 548.033C242.517 548.033 244.597 546.258 245.153 544.692C245.779 542.925 245.738 541.392 245.008 539.895C244.28 538.402 242.309 536.917 242.309 536.917C242.309 536.917 239.119 534.582 236.944 533.312C235.356 532.384 234.515 531.745 232.775 531.128C231.296 530.604 228.815 530.235 228.815 530.235C228.815 530.235 226.117 530.192 224.37 530.268C222.131 530.365 218.11 531.708 218.11 531.708Z" stroke="black" stroke-width="3.63238" stroke-linecap="round"/>
<path id="Vector 11_2" d="M259.174 579.363C252.273 566.659 246.353 544.715 246.353 544.715C246.353 544.715 239.14 551.868 233.158 553.347C225.465 555.249 213.121 548.931 213.121 548.931C213.121 548.931 237.084 565.557 249.494 579.363C258.499 589.38 267.929 614.402 267.929 614.402C267.929 614.402 273.019 606.921 275.51 606.589C278.097 606.243 283.375 606.589 283.375 606.589C283.375 606.589 267.493 594.676 259.174 579.363Z" fill="black" stroke="black" stroke-width="1.21079"/>
</g>
<g id="right-arm-sm">
<path id="Vector 3_10" d="M388.886 585.378C388.886 585.378 389.379 584.412 389.552 583.7C389.742 582.921 389.883 582.45 389.763 581.574C389.565 580.136 388.98 579.179 387.945 578.207C386.607 576.95 385.5 577.168 383.984 577.134C381.214 577.073 377.755 579.975 377.755 579.975C377.755 579.975 375.803 581.32 374.847 582.562C374.295 583.28 374.017 583.726 373.601 584.579C372.568 586.696 372.246 590.906 372.246 590.906C372.246 590.906 372.32 592.537 372.856 593.373C373.459 594.315 374.197 594.857 375.17 595.062C376.141 595.265 377.564 594.88 377.564 594.88C377.564 594.88 379.833 594.231 381.229 593.671C382.248 593.262 382.858 593.1 383.786 592.505C384.575 592 385.658 590.965 385.658 590.965C385.658 590.965 386.667 589.709 387.271 588.857C388.046 587.765 388.886 585.378 388.886 585.378Z" stroke="black" stroke-width="3.63238" stroke-linecap="round"/>
<path id="Vector 3_11" d="M411.328 494.141C411.328 494.141 412.153 492.524 412.444 491.331C412.762 490.027 412.999 489.239 412.797 487.771C412.466 485.364 411.486 483.76 409.753 482.133C407.512 480.028 405.659 480.393 403.12 480.337C398.481 480.233 392.687 485.094 392.687 485.094C392.687 485.094 389.42 487.346 387.819 489.426C386.894 490.628 386.428 491.375 385.731 492.804C384.001 496.349 383.462 503.399 383.462 503.399C383.462 503.399 383.587 506.13 384.483 507.53C385.494 509.108 386.73 510.016 388.36 510.358C389.986 510.7 392.368 510.054 392.368 510.054C392.368 510.054 396.169 508.968 398.506 508.03C400.212 507.345 401.234 507.073 402.788 506.077C404.109 505.23 405.923 503.498 405.923 503.498C405.923 503.498 407.612 501.394 408.624 499.968C409.921 498.14 411.328 494.141 411.328 494.141Z" stroke="black" stroke-width="3.63238" stroke-linecap="round"/>
<path id="Vector 3_12" d="M382.686 666.112C382.686 666.112 382.995 665.507 383.104 665.061C383.222 664.573 383.311 664.278 383.235 663.73C383.111 662.83 382.745 662.23 382.097 661.621C381.259 660.834 380.566 660.971 379.617 660.95C377.882 660.911 375.715 662.729 375.715 662.729C375.715 662.729 374.493 663.571 373.895 664.348C373.549 664.798 373.375 665.078 373.114 665.612C372.467 666.937 372.265 669.574 372.265 669.574C372.265 669.574 372.312 670.595 372.647 671.118C373.025 671.709 373.487 672.048 374.097 672.176C374.705 672.304 375.596 672.062 375.596 672.062C375.596 672.062 377.017 671.656 377.891 671.305C378.529 671.049 378.911 670.948 379.493 670.575C379.987 670.259 380.665 669.611 380.665 669.611C380.665 669.611 381.296 668.824 381.675 668.291C382.16 667.607 382.686 666.112 382.686 666.112Z" fill="#FFBBD0" stroke="black" stroke-width="3.63238" stroke-linecap="round"/>
<path id="Vector 14_4" d="M377.722 660.436L371.672 666.487C371.672 666.487 377.627 634.56 375.302 613.849C374.418 605.974 371.672 593.884 371.672 593.884L380.142 595.094L388.008 589.648C388.008 589.648 379.915 614.487 380.142 631.395C380.298 642.979 383.772 661.646 383.772 661.646L377.722 660.436Z" fill="black" stroke="black" stroke-width="1.21079"/>
<path id="Vector 15_4" d="M377.118 578.758L372.328 584.643C372.328 584.643 383.744 563.547 385.588 544.876C387.101 529.564 383.168 505.55 383.168 505.55L389.823 511.6L401.924 507.97L409.789 498.895C409.789 498.895 392.345 530.074 389.823 552.137C388.643 562.466 390.68 580.675 390.68 580.675L385.588 575.733L377.118 578.758Z" fill="black" stroke="black" stroke-width="1.21079"/>
</g>
<g id="right-leg-sm">
<path id="Vector 3_13" d="M374.241 390.876C374.241 390.876 374.211 392.318 373.966 393.263C373.699 394.295 373.568 394.936 372.875 395.888C371.739 397.448 370.45 398.203 368.625 398.691C366.265 399.322 365.105 398.37 363.307 397.456C360.02 395.785 357.791 390.204 357.791 390.204C357.791 390.204 356.349 387.399 356.01 385.342C355.814 384.152 355.769 383.454 355.818 382.192C355.94 379.06 358.212 373.921 358.212 373.921C358.212 373.921 359.326 372.056 360.479 371.414C361.78 370.688 362.987 370.517 364.256 370.89C365.523 371.262 366.948 372.61 366.948 372.61C366.948 372.61 369.201 374.798 370.484 376.334C371.422 377.455 372.034 378.029 372.748 379.31C373.355 380.399 373.974 382.294 373.974 382.294C373.974 382.294 374.366 384.402 374.538 385.78C374.759 387.548 374.241 390.876 374.241 390.876Z" stroke="black" stroke-width="4.83348" stroke-linecap="round"/>
<path id="Vector 3_14" d="M343.132 511.967C343.132 511.967 343.083 514.382 342.673 515.965C342.225 517.692 342.006 518.766 340.846 520.36C338.942 522.974 336.784 524.237 333.728 525.054C329.776 526.111 327.833 524.517 324.821 522.985C319.317 520.187 315.584 510.841 315.584 510.841C315.584 510.841 313.171 506.145 312.603 502.699C312.274 500.707 312.199 499.538 312.281 497.424C312.484 492.179 316.289 483.574 316.289 483.574C316.289 483.574 318.155 480.451 320.086 479.374C322.265 478.16 324.285 477.873 326.412 478.498C328.533 479.121 330.919 481.378 330.919 481.378C330.919 481.378 334.691 485.043 336.841 487.614C338.411 489.491 339.437 490.453 340.633 492.599C341.649 494.423 342.685 497.595 342.685 497.595C342.685 497.595 343.341 501.125 343.63 503.434C344 506.394 343.132 511.967 343.132 511.967Z" stroke="black" stroke-width="4.83348" stroke-linecap="round"/>
<path id="Vector 3_15" d="M417.792 292.322C417.792 292.322 417.774 293.224 417.62 293.816C417.453 294.462 417.371 294.864 416.937 295.46C416.225 296.437 415.418 296.91 414.275 297.215C412.797 297.611 412.071 297.014 410.945 296.442C408.886 295.395 407.49 291.9 407.49 291.9C407.49 291.9 406.588 290.144 406.375 288.856C406.253 288.111 406.225 287.673 406.255 286.883C406.331 284.922 407.754 281.704 407.754 281.704C407.754 281.704 408.452 280.536 409.174 280.133C409.989 279.679 410.744 279.572 411.539 279.806C412.333 280.039 413.225 280.882 413.225 280.882C413.225 280.882 414.636 282.253 415.44 283.215C416.027 283.917 416.41 284.276 416.857 285.079C417.237 285.761 417.625 286.947 417.625 286.947C417.625 286.947 417.87 288.267 417.978 289.13C418.117 290.237 417.792 292.322 417.792 292.322Z" stroke="black" stroke-width="4.83348" stroke-linecap="round"/>
<path id="Vector 14_5" d="M408.397 295.85L405.112 284.949C405.112 284.949 391.999 326.128 376.238 348.946C370.245 357.623 359.416 370.069 359.416 370.069L370.108 373.981L375.915 386.242C375.915 386.242 382.047 351.102 392.956 331.421C400.43 317.939 416.252 298.24 416.252 298.24L408.397 295.85Z" fill="black" stroke="black" stroke-width="1.61116"/>
<path id="Vector 15_5" d="M356.283 391.23L354.424 383.019C354.424 383.019 354.478 413.234 344.889 436.284C337.025 455.188 316.646 480.482 316.646 480.482L328.91 477.963L340.812 489.835L344.322 505.425C344.322 505.425 343.494 457.891 354.424 430.437C359.541 417.585 373.437 397.65 373.437 397.65L364.309 400.108L356.283 391.23Z" fill="black" stroke="black" stroke-width="1.61116"/>
</g>
<g id="left-leg-sm">
<path id="Vector 12_4" d="M248.078 454.509C246.139 469.076 254.456 496.081 254.456 496.081C254.456 496.081 238.312 487.374 230.939 490.007C221.455 493.394 214.211 497.196 214.211 497.196C214.211 497.196 227.17 478.485 234.778 459.522C240.298 445.763 231.903 418.98 231.903 418.98C231.903 418.98 251.024 423.629 253.965 422.305C257.02 420.931 262.774 417.286 262.774 417.286C262.774 417.286 250.416 436.951 248.078 454.509Z" fill="black" stroke="black" stroke-width="1.56073"/>
<path id="Vector 1_8" d="M248.073 516.813C248.073 516.813 250.394 516.11 251.794 515.296C253.323 514.407 254.293 513.91 255.463 512.39C257.385 509.896 257.918 507.531 257.731 504.446C257.491 500.456 255.327 499.069 252.883 496.663C248.415 492.266 238.178 491.308 238.178 491.308C238.178 491.308 232.861 490.322 229.345 490.727C227.312 490.96 226.156 491.208 224.137 491.859C219.126 493.474 212.015 499.377 212.015 499.377C212.015 499.377 209.538 501.49 209.164 504.076C208.792 506.65 209.053 508.418 210.338 510.241C211.619 512.059 214.566 513.682 214.566 513.682C214.566 513.682 219.319 516.22 222.494 517.536C224.812 518.496 226.071 519.196 228.53 519.734C230.62 520.19 234.021 520.299 234.021 520.299C234.021 520.299 237.646 519.954 239.973 519.598C242.956 519.14 248.073 516.813 248.073 516.813Z" stroke="black" stroke-width="4.68219" stroke-linecap="round"/>
<path id="Vector 3_16" d="M190.63 255.098C190.63 255.098 190.667 256.942 190.981 258.15C191.323 259.469 191.49 260.289 192.376 261.506C193.829 263.502 195.477 264.466 197.81 265.09C200.828 265.897 202.311 264.68 204.611 263.511C208.814 261.374 211.664 254.238 211.664 254.238C211.664 254.238 213.507 250.652 213.941 248.021C214.191 246.5 214.249 245.607 214.186 243.993C214.031 239.989 211.126 233.419 211.126 233.419C211.126 233.419 209.701 231.034 208.226 230.212C206.563 229.285 205.02 229.065 203.397 229.542C201.777 230.018 199.955 231.741 199.955 231.741C199.955 231.741 197.075 234.54 195.433 236.503C194.235 237.936 193.451 238.671 192.538 240.309C191.762 241.702 190.971 244.124 190.971 244.124C190.971 244.124 190.47 246.819 190.25 248.582C189.967 250.842 190.63 255.098 190.63 255.098Z" stroke="black" stroke-width="6.18038" stroke-linecap="round"/>
<path id="Vector 3_17" d="M230.408 409.933C230.408 409.933 230.471 413.021 230.996 415.044C231.569 417.254 231.849 418.627 233.332 420.664C235.766 424.006 238.525 425.622 242.433 426.667C247.487 428.018 249.971 425.979 253.822 424.022C260.86 420.444 265.633 408.493 265.633 408.493C265.633 408.493 268.719 402.488 269.445 398.082C269.865 395.535 269.961 394.04 269.857 391.337C269.597 384.631 264.732 373.628 264.732 373.628C264.732 373.628 262.346 369.635 259.876 368.258C257.091 366.705 254.507 366.338 251.788 367.137C249.076 367.934 246.025 370.819 246.025 370.819C246.025 370.819 241.201 375.506 238.452 378.793C236.445 381.194 235.133 382.423 233.604 385.167C232.305 387.499 230.98 391.556 230.98 391.556C230.98 391.556 230.142 396.069 229.772 399.022C229.299 402.806 230.408 409.933 230.408 409.933Z" stroke="black" stroke-width="6.18038" stroke-linecap="round"/>
<path id="Vector 3_18" d="M134.946 129.08C134.946 129.08 134.97 130.235 135.166 130.991C135.38 131.818 135.485 132.331 136.039 133.093C136.95 134.343 137.981 134.947 139.443 135.338C141.332 135.843 142.261 135.081 143.702 134.348C146.333 133.01 148.118 128.542 148.118 128.542C148.118 128.542 149.272 126.296 149.544 124.648C149.701 123.696 149.737 123.137 149.698 122.126C149.601 119.618 147.781 115.504 147.781 115.504C147.781 115.504 146.889 114.01 145.965 113.495C144.924 112.915 143.958 112.778 142.941 113.076C141.927 113.374 140.786 114.453 140.786 114.453C140.786 114.453 138.982 116.206 137.954 117.435C137.203 118.333 136.713 118.793 136.141 119.819C135.655 120.691 135.16 122.208 135.16 122.208C135.16 122.208 134.846 123.896 134.708 125C134.531 126.415 134.946 129.08 134.946 129.08Z" stroke="black" stroke-width="6.18038" stroke-linecap="round"/>
<path id="Vector 14_6" d="M146.956 133.593L151.157 119.654C151.157 119.654 167.924 172.308 188.076 201.484C195.74 212.579 209.587 228.493 209.587 228.493L195.915 233.496L188.077 252.609C188.077 252.609 180.649 204.241 166.7 179.076C157.144 161.837 136.912 136.648 136.912 136.648L146.956 133.593Z" fill="black" stroke="black" stroke-width="2.06013"/>
<path id="Vector 15_6" d="M213.593 255.551L216.213 243.395C216.213 243.395 215.902 283.686 228.162 313.159C238.218 337.332 263.44 370.166 263.44 370.166L248.594 366.452L233.375 381.632L228.888 401.567C228.888 401.567 229.946 340.787 215.97 305.684C209.428 289.249 191.661 263.731 191.661 263.731L203.33 266.902L213.593 255.551Z" fill="black" stroke="black" stroke-width="2.06013"/>
<path id="Vector 1_9" d="M233.187 417.623C233.952 418.709 235.712 419.678 235.712 419.678C235.712 419.678 238.55 421.194 240.446 421.98C241.83 422.553 242.582 422.971 244.05 423.292C245.298 423.565 247.329 423.63 247.329 423.63C247.329 423.63 249.494 423.424 250.884 423.211C252.665 422.938 255.72 421.548 255.72 421.548C255.72 421.548 257.106 421.129 257.942 420.642C258.855 420.111 259.434 419.815 260.134 418.907" stroke="black" stroke-width="4.68219" stroke-linecap="round"/>
</g>
<path id="head-sm" d="M387.12 749.554C387.12 749.554 387.329 749.144 387.403 748.841C387.484 748.51 387.544 748.31 387.493 747.938C387.409 747.327 387.16 746.92 386.72 746.507C386.152 745.973 385.681 746.065 385.037 746.051C383.86 746.025 382.39 747.258 382.39 747.258C382.39 747.258 381.561 747.83 381.155 748.357C380.92 748.662 380.802 748.852 380.625 749.215C380.186 750.114 380.049 751.903 380.049 751.903C380.049 751.903 380.081 752.596 380.308 752.951C380.565 753.351 380.878 753.582 381.292 753.669C381.705 753.755 382.309 753.592 382.309 753.592C382.309 753.592 383.273 753.316 383.866 753.078C384.299 752.904 384.559 752.835 384.953 752.582C385.288 752.368 385.748 751.928 385.748 751.928C385.748 751.928 386.177 751.394 386.434 751.032C386.763 750.568 387.12 749.554 387.12 749.554Z" fill="#FFBBD0" stroke="black" stroke-width="3.6" stroke-linecap="round"/>
</g>
</g>
</svg>
